<?xml version="1.0" encoding="UTF-8" standalone="no"?>
<!-- Created with Inkscape (http://www.inkscape.org/) -->

<svg
   width="12in"
   height="5in"
   viewBox="0 0 304.80002 127"
   version="1.1"
   id="svg5"
   sodipodi:docname="Picacho Toxic Wave - Color Preview.svg"
   inkscape:version="1.1.1 (3bf5ae0d25, 2021-09-20)"
   xmlns:inkscape="http://www.inkscape.org/namespaces/inkscape"
   xmlns:sodipodi="http://sodipodi.sourceforge.net/DTD/sodipodi-0.dtd"
   xmlns="http://www.w3.org/2000/svg"
   xmlns:svg="http://www.w3.org/2000/svg"
   xmlns:inkstitch="http://inkstitch.org/namespace">
  <metadata
     id="metadata45613">
    <inkstitch:collapse_len_mm />
  </metadata>
  <sodipodi:namedview
     id="namedview7"
     pagecolor="#ffffff"
     bordercolor="#666666"
     borderopacity="1.0"
     inkscape:pageshadow="2"
     inkscape:pageopacity="0"
     inkscape:pagecheckerboard="true"
     inkscape:document-units="mm"
     showgrid="false"
     units="in"
     inkscape:zoom="0.35355339"
     inkscape:cx="432.74935"
     inkscape:cy="251.73001"
     inkscape:window-width="1645"
     inkscape:window-height="1040"
     inkscape:window-x="213"
     inkscape:window-y="528"
     inkscape:window-maximized="0"
     inkscape:current-layer="layer6"
     inkscape:lockguides="false"
     height="4in" />
  <defs
     id="defs2">
    <symbol
       id="inkstitch_ignore_layer">
      <title
         id="title9694">Ignore entire layer when generating stitch plan</title>
      <path
         inkscape:connector-curvature="0"
         style="opacity:1;vector-effect:none;fill:#fafafa;fill-opacity:1;fill-rule:evenodd;stroke:#ff0000;stroke-width:1.06501;stroke-linecap:round;stroke-linejoin:miter;stroke-miterlimit:4;stroke-dasharray:3.19504, 3.19504;stroke-dashoffset:0;stroke-opacity:1"
         d="M 9.2465269,-4.9265995e-6 C 9.246525,5.1067241 5.1067028,9.2465451 -2.615882e-5,9.2465451 -5.1067554,9.2465451 -9.2465782,5.1067241 -9.2465801,-4.9265995e-6 -9.24658,-2.4523429 -8.2723922,-4.8042399 -6.538327,-6.5383059 c 1.7340653,-1.734065 4.0859624,-2.708252 6.53830084118,-2.708252 5.10673015882,0 9.24655285882,4.139823 9.24655305882,9.2465529734005 0,0 0,0 0,0"
         id="inkstitch_path25368-7" />
      <path
         sodipodi:nodetypes="ccccc"
         inkscape:connector-curvature="0"
         style="color:#000000;fill:#d5d5d5;fill-opacity:1;fill-rule:evenodd;stroke:#5a5a5a;stroke-width:0.6333;stroke-linecap:square;stroke-linejoin:round;stroke-miterlimit:0;stroke-opacity:1"
         d="M 4,4.452769 1.46667,1.286102 H -5.5 l 2.53333,3.166667 z"
         id="use5800" />
      <path
         sodipodi:nodetypes="ccccc"
         inkscape:connector-curvature="0"
         style="color:#000000;opacity:0.5;fill:#d5d5d5;fill-opacity:1;fill-rule:evenodd;stroke:#858585;stroke-width:0.633394;stroke-linecap:square;stroke-linejoin:round;stroke-miterlimit:0;stroke-opacity:1"
         d="M 4,2.552769 1.46667,-0.613898 H -5.5 l 2.53333,3.166667 z"
         id="use5864" />
      <g
         id="g5771">
        <path
           sodipodi:nodetypes="ccccccccc"
           inkscape:connector-curvature="0"
           style="fill:#aa0000;fill-rule:evenodd;stroke:#aa0000;stroke-width:1px"
           d="m -1.0666699,-5.0472339 h 4.4333333 l 0.6333333,0.6333333 V 0.01943274 L 3.3666634,0.65276607 H -1.0666699 L -1.7000032,0.01943274 V -4.4139006 Z"
           id="path8011" />
        <path
           inkscape:connector-curvature="0"
           id="path8023"
           d="m -0.43333658,-3.8755672 c 0,0 3.16666668,3.16666661 3.16666668,3.16666661"
           style="fill:none;stroke:#ffffff;stroke-width:1.7" />
        <path
           inkscape:connector-curvature="0"
           id="path8025"
           d="m 2.7333301,-3.8755672 c 0,0 -3.16666668,3.16666661 -3.16666668,3.16666661"
           style="fill:none;stroke:#ffffff;stroke-width:1.8;stroke-linejoin:round" />
      </g>
    </symbol>
    <symbol
       id="inkstitch_trim">
      <title
         id="inkstitch_title9282">Trim the thread after sewing this object.</title>
      <path
         id="inkstitch_circle13405"
         d="m 9.2465284,-8.6e-6 c 1.8e-6,2.452339 -0.9741847,4.804237 -2.7082493,6.538304 C 4.8042146,8.2723614 2.4523174,9.2465504 -2.1625959e-5,9.2465514 -2.4523623,9.2465534 -4.8042621,8.2723654 -6.5383288,6.5382984 -8.2723956,4.8042314 -9.2465834,2.4523324 -9.2465816,-8.6e-6 c 6e-7,-2.452339 0.9741895,-4.804237 2.708256,-6.538301 1.7340665,-1.734065 4.0859648,-2.708252 6.538303974041,-2.70825 C 5.1067066,-9.2465576 9.2465271,-5.1067366 9.2465284,-8.6e-6 c 0,0 0,0 0,0"
         style="opacity:1;vector-effect:none;fill:#fafafa;fill-opacity:1;fill-rule:evenodd;stroke:#003399;stroke-width:1.065;stroke-linecap:round;stroke-linejoin:miter;stroke-miterlimit:4;stroke-dasharray:3.195, 3.195;stroke-dashoffset:0;stroke-opacity:1"
         inkscape:connector-curvature="0" />
      <path
         style="color:#000000;font-style:normal;font-variant:normal;font-weight:normal;font-stretch:normal;font-size:medium;line-height:normal;font-family:sans-serif;font-variant-ligatures:normal;font-variant-position:normal;font-variant-caps:normal;font-variant-numeric:normal;font-variant-alternates:normal;font-feature-settings:normal;text-indent:0;text-align:start;text-decoration:none;text-decoration-line:none;text-decoration-style:solid;text-decoration-color:#000000;letter-spacing:normal;word-spacing:normal;text-transform:none;writing-mode:lr-tb;direction:ltr;text-orientation:mixed;dominant-baseline:auto;baseline-shift:baseline;text-anchor:start;white-space:normal;shape-padding:0;clip-rule:nonzero;display:inline;overflow:visible;visibility:visible;opacity:1;isolation:auto;mix-blend-mode:normal;color-interpolation:sRGB;color-interpolation-filters:linearRGB;solid-color:#000000;solid-opacity:1;vector-effect:none;fill:#050505;fill-opacity:1;fill-rule:evenodd;stroke:none;stroke-width:1.41421;stroke-linecap:butt;stroke-linejoin:miter;stroke-miterlimit:4;stroke-dasharray:none;stroke-dashoffset:0;stroke-opacity:1;color-rendering:auto;image-rendering:auto;shape-rendering:auto;text-rendering:auto;enable-background:accumulate"
         d="m -3.0000256,-5.9834096 c -1.30575,0 -2.375,1.06924 -2.375,2.375 0,1.30575 1.06925,2.375 2.375,2.375 0.58687,0 1.11944,-0.22369 1.53516,-0.58007 0,0 0.61717997,1.62109 0.61717997,1.62109 0,0 -2.29881997,6.01758 -2.29881997,6.01758 0.98655,-0.12511 1.23728,-0.26171 1.67382,-0.97461 0,0 1.33007997,-3.18945 1.33007997,-3.18945 0,0 1.23633003,3.25 1.23633003,3.25 0.23227,0.77906 0.84315,0.79218 1.57813,1.07226 0,0 -2.05469003,-6.14258 -2.05469003,-6.14258 0,0 0.73047003,-1.75 0.73047003,-1.75 0.42849,0.41682 1.01136,0.67578 1.65234,0.67578 1.30575,0 2.375,-1.06925 2.375,-2.375 0,-1.30576 -1.06925,-2.375 -2.375,-2.375 -1.06233,0 -1.95701,0.71265 -2.25781003,1.67969 0,0 -0.0117,-0.0156 -0.0117,-0.0156 0,0 -0.80274,2.10156 -0.80274,2.10156 0,0 -0.59179,-1.76562 -0.59179,-1.76562 -0.18242,-1.12808 -1.15864997,-2 -2.33593997,-2 0,0 -2e-5,-3e-5 -2e-5,-3e-5 m 0,1 c 0.76531,0 1.375,0.60968 1.375,1.375 0,0.76531 -0.60969,1.375 -1.375,1.375 -0.76531,0 -1.375,-0.60969 -1.375,-1.375 0,-0.76532 0.60969,-1.375 1.375,-1.375 0,0 0,0 0,0 m 6,0 c 0.76531,0 1.375,0.60968 1.375,1.375 0,0.76531 -0.60969,1.375 -1.375,1.375 -0.76531,0 -1.375,-0.60969 -1.375,-1.375 0,-0.76532 0.60969,-1.375 1.375,-1.375 0,0 0,0 0,0"
         id="inkstitch_path13416"
         inkscape:connector-curvature="0" />
    </symbol>
    <symbol
       id="inkstitch_fill_start">
      <title
         id="inkstitch_title9432">Fill stitch starting point</title>
      <path
         id="inkstitch_circle13166-6"
         d="m 9.2465269,-2.6e-6 c -1.9e-6,5.106729 -4.1398247,9.24655 -9.246554026709,9.24655 C -5.106756,9.2465474 -9.2465782,5.1067264 -9.2465801,-2.6e-6 c 2e-7,-5.10673 4.1398229,-9.246553 9.246552973291,-9.246553 2.452338526709,0 4.804235626709,0.974187 6.538300926709,2.708252 1.7340652,1.734066 2.708253,4.085963 2.7082531,6.538301 0,0 0,0 0,0"
         style="opacity:1;vector-effect:none;fill:#fafafa;fill-opacity:1;fill-rule:evenodd;stroke:#003399;stroke-width:1.06501;stroke-linecap:round;stroke-linejoin:miter;stroke-miterlimit:4;stroke-dasharray:3.19504, 3.19504;stroke-dashoffset:0;stroke-opacity:1"
         inkscape:connector-curvature="0" />
      <path
         style="opacity:1;vector-effect:none;fill:#000000;fill-opacity:1;fill-rule:evenodd;stroke:none;stroke-width:2.74181;stroke-linecap:butt;stroke-linejoin:miter;stroke-miterlimit:4;stroke-dasharray:none;stroke-dashoffset:0;stroke-opacity:1"
         d="m 6.5728129,0.0035574 c 0,0 -10.4514,6.03412 -10.4514,6.03412 0,0 0,-12.06823 0,-12.06823 0,0 10.4514,6.03411 10.4514,6.03411"
         id="inkstitch_path4183"
         inkscape:connector-curvature="0" />
    </symbol>
    <symbol
       id="inkstitch_fill_end">
      <title
         id="inkstitch_title9427">Fill stitch ending point</title>
      <path
         id="inkstitch_circle13166"
         d="m 9.220113,0.0792309 c -1.9e-6,5.106729 -4.1398241,9.24655 -9.246553,9.24655 -5.1067293,0 -9.2465521,-4.139821 -9.246554,-9.24655 1e-7,-2.452338 0.9741879,-4.804235 2.7082531,-6.538301 1.7340653,-1.734065 4.0859624,-2.708252 6.5383009,-2.708252 5.1067301,0 9.2465528,4.139823 9.246553,9.246553 0,0 0,0 0,0"
         style="opacity:1;vector-effect:none;fill:#fafafa;fill-opacity:1;fill-rule:evenodd;stroke:#003399;stroke-width:1.065;stroke-linecap:round;stroke-linejoin:miter;stroke-miterlimit:4;stroke-dasharray:3.195, 3.195;stroke-dashoffset:0;stroke-opacity:1"
         inkscape:connector-curvature="0" />
      <path
         style="opacity:1;fill:#000000;fill-opacity:1;fill-rule:nonzero;stroke:none;stroke-width:2.27154;stroke-linecap:round;stroke-linejoin:round;stroke-miterlimit:4;stroke-dasharray:4.81867, 4.81867;stroke-dashoffset:0;stroke-opacity:1;paint-order:fill markers stroke"
         d="m -4.570439,-4.5704391 c 0,0 9.140878,0 9.140878,0 0,0 0,9.14087 0,9.14087 0,0 -9.140878,0 -9.140878,0 0,0 0,-9.14087 0,-9.14087"
         id="inkstitch_rect5371-2"
         inkscape:connector-curvature="0" />
    </symbol>
  </defs>
  <g
     inkscape:groupmode="layer"
     id="layer6"
     inkscape:label="Workspace"
     style="display:inline">
    <g
       id="g1811"
       inkscape:label="Top Color"
       style="display:inline;fill:#ffff00;fill-opacity:1;stroke:#000000;stroke-width:2;stroke-miterlimit:4;stroke-dasharray:none;stroke-opacity:1"
       transform="translate(22.041021,-36.696154)">
      <path
         id="path30778_1"
         style="display:inline;fill:#ffff00;fill-opacity:1;fill-rule:evenodd;stroke:#000000;stroke-width:7.55906;stroke-linecap:butt;stroke-linejoin:miter;stroke-miterlimit:4;stroke-dasharray:none;stroke-opacity:1"
         inkscape:label="P"
         d="m 69.615234,298.77539 -0.791015,0.0898 -0.771485,0.20118 -1.498046,0.6875 -1.441407,1 -1.394531,1.21875 -2.685547,2.74023 -2.609375,2.55273 -4.65625,4.0918 -4.46289,4.32617 -2.101563,2.27735 -1.984375,2.36914 -1.841797,2.4707 -1.677734,2.58203 -0.779297,1.68555 -0.507813,1.8457 -0.646484,3.88282 -0.363281,1.89453 -0.53711,1.76562 -0.824218,1.56641 -0.552735,0.68554 -0.666015,0.60938 -1.185547,0.76172 -1.269531,0.5332 -1.345704,0.33399 -1.408203,0.16796 -2.96289,-0.0449 -3.082032,-0.33789 -3.113281,-0.38476 -3.054687,-0.18164 -1.476563,0.0625 -1.429687,0.20898 -1.369141,0.38281 -1.300781,0.58985 -1.574219,1.02734 -1.453125,1.33008 -0.572266,0.75195 -0.4101559,0.79297 -0.2089843,0.82617 0.039062,0.84571 0.2070313,0.63671 0.3300789,0.53907 0.439453,0.45507 0.529297,0.38477 1.279297,0.60352 1.474609,0.46679 3.064453,0.92188 1.353516,0.65234 0.580078,0.41797 0.498047,0.49609 0.703125,1.06446 0.488281,1.18554 0.613281,2.57813 0.582031,2.60351 0.451172,1.2168 0.646485,1.10742 0.923828,1.07813 1.054687,0.94531 2.373047,1.625 2.523438,1.47852 c 2.782877,2.0755 1.839508,1.49165 4.27539,3.23632 2.721336,3.01735 4.420499,6.83596 6.271485,10.45313 2.648541,5.17576 5.137854,10.4807 6.880859,16.02734 1.422047,4.52523 2.83917,9.19228 2.875,13.93555 0.01889,2.17149 -0.157403,4.36682 -0.505859,6.5332 -1.03e-4,6.4e-4 1.02e-4,10e-4 0,0.002 l -0.392579,2.07812 -0.509765,2.05078 -0.628906,2.00977 -0.751953,1.95898 -0.50586,0.93555 -0.65039,0.86328 -1.507813,1.61914 -1.394531,1.65235 -0.509766,0.90429 -0.308594,0.99414 -0.234375,2.06641 0.01953,2.10351 0.251953,2.11329 0.46875,2.0957 0.666015,2.04883 0.847657,1.97656 1.007812,1.87695 1.154297,1.7461 0.771484,0.81054 0.9375,0.63282 2.150391,0.97656 2.136719,0.98633 0.919922,0.64648 0.748047,0.82617 1.058593,1.91406 0.71875,2.05469 0.458985,2.16407 0.28125,2.24023 0.353515,4.57227 0.232422,2.26562 0.380859,2.20898 0.458985,1.70118 0.578125,1.69336 1.246094,3.375 0.539062,1.6914 0.392578,1.69727 0.185547,1.70703 -0.08984,1.72266 -0.398437,1.86328 -0.626953,1.80078 -0.822266,1.74218 -0.980469,1.68165 -1.107422,1.625 -1.199218,1.5664 -2.529297,2.96094 -0.945313,0.9043 -1.101562,0.80468 -2.544922,1.39063 -2.796875,1.20117 -2.804687,1.15039 -2.564454,1.23047 -1.115234,0.6875 -0.962891,0.75781 -0.78125,0.84375 -0.566406,0.94922 -0.320312,1.07031 -0.04687,1.20508 0.201172,1.10352 0.402343,0.99023 0.585938,0.88672 0.748047,0.79102 0.894531,0.70312 1.017578,0.62305 2.328125,1.03125 2.591797,0.79883 2.697265,0.62695 5.083985,0.98047 1.365234,0.19531 1.38086,0.0508 2.787109,-0.24219 2.810547,-0.55078 2.816406,-0.68359 2.802735,-0.63867 2.773437,-0.41602 1.371094,-0.0703 1.355469,0.0527 1.339843,0.19727 1.320313,0.36328 1.058594,0.47656 0.970703,0.64063 0.898437,0.78125 0.835938,0.89258 1.541015,2.02148 1.453125,2.1543 1.46875,2.08008 1.585938,1.79296 0.871094,0.72266 0.941406,0.57227 1.021484,0.39257 1.117188,0.19141 1.628906,-0.10352 1.552734,-0.49218 1.478516,-0.80664 1.402344,-1.05078 1.332031,-1.22266 1.261719,-1.32422 2.318367,-2.66602 0.99804,-1.43554 0.75586,-1.60742 1.1543,-3.46485 0.57617,-1.72265 0.69141,-1.625 0.90039,-1.45899 1.19531,-1.22851 1.55273,-1.02539 1.68946,-0.76758 1.79883,-0.55469 1.87695,-0.38672 3.875,-0.44531 3.83984,-0.30469 1.95899,0.0234 2.02539,0.33398 4.09961,1.01563 1.99218,0.38867 1.89844,0.11328 0.90234,-0.0918 0.86329,-0.21484 0.82031,-0.35547 0.77148,-0.51758 0.7461,-0.76757 0.58593,-0.9375 0.42383,-1.06446 0.26367,-1.14258 0.0957,-1.17578 -0.0703,-1.16406 -0.24023,-1.10742 -0.41211,-1.00195 -0.62695,-0.7793 -0.85156,-0.52735 -1.00782,-0.35546 -1.10547,-0.25782 -2.23242,-0.52343 -1.00195,-0.41797 -0.83789,-0.62305 -3.67383,-3.27734 -1.32812,-1.16797 -1.2168,-0.90625 -1.2793,-0.6836 -1.51172,-0.50195 -1.91406,-0.35547 -2.49023,-0.25195 -1.07032,-0.37891 -0.97265,-0.57422 -0.89258,-0.73046 -0.83008,-0.84571 -1.53906,-1.8789 -1.49024,-1.86133 -2.45312,-2.85742 -1.02734,-1.54688 -0.40039,-0.82617 -0.30079,-0.86719 -0.26367,-1.22851 -0.13867,-1.23828 0.0352,-2.50391 0.33398,-2.5332 0.5,-2.55079 0.5293,-2.55468 0.41992,-2.55274 0.17969,-2.53711 -0.0449,-1.25781 -0.15626,-1.25195 -0.32617,-1.14258 -0.51757,-1.0918 -1.31836,-2.10351 -0.6504,-1.04688 -0.54492,-1.0664 -0.36523,-1.10352 -0.11133,-1.15625 0.0996,-1.03906 0.22461,-1.03907 0.78906,-2.00976 0.55078,-0.93359 0.64063,-0.86133 0.72656,-0.77149 0.80273,-0.66211 0.92383,-0.57031 0.97657,-0.43555 2.08398,-0.5332 2.2168,-0.20508 2.29492,-0.0195 2.32422,0.0312 2.29492,-0.0684 2.21875,-0.30273 1.06445,-0.28516 1.02344,-0.39844 1.26953,-0.74804 1.13867,-0.95508 2.07618,-2.23828 1.02343,-1.13672 1.07227,-1.04688 1.16992,-0.88867 1.30664,-0.65234 1.16406,-0.32031 1.19141,-0.15039 2.44922,0.0508 2.48633,0.26367 2.46679,0.15625 2.8125,0.23242 2.97657,0.56641 3.04101,0.69726 3.00781,0.63281 2.87891,0.36524 1.36133,0.0195 1.29101,-0.12109 1.20899,-0.28711 1.11719,-0.47657 1.01171,-0.69531 0.89454,-0.93554 0.55273,-0.87305 0.3457,-0.91797 0.16211,-0.95898 -0.004,-0.9961 -0.14454,-1.02539 -0.26953,-1.05273 -0.82226,-2.16211 -2.19336,-4.42774 -1.03516,-2.18945 -0.77343,-2.12109 -0.58008,-1.66016 -0.73633,-1.64844 -1.59766,-3.28125 -0.6875,-1.64258 -0.49804,-1.65234 -0.22266,-1.66601 0.14258,-1.6875 0.25,-0.85938 0.37109,-0.79688 1.03711,-1.4414 1.32422,-1.29492 1.47656,-1.21289 c 0.003,-3.6e-4 0.005,-0.002 0.008,-0.002 1.80582,-1.43879 3.66582,-2.87289 4.5918,-4.84179 2.40533,-5.11427 5.15653,-11.59368 2.78711,-16.72461 -1.13567,-2.45934 -5.72922,-1.77107 -6.96875,-4.17969 -2.66566,-5.17996 1.73677,-11.6044 1.39453,-17.41992 -0.20712,-3.5209 -0.221,-7.32222 -1.27929,-10.67383 -0.069,0.009 -0.13801,0.0181 -0.20704,0.0273 l 0.20704,-0.0293 -0.64258,-1.68164 -0.86719,-1.58204 -1.11133,-1.39843 -1.32422,-1.18946 -1.48047,-1.03515 -1.58789,-0.9336 -3.27929,-1.78125 -1.58399,-0.95507 -1.47851,-1.06836 -2.74219,-2.29883 -2.66797,-2.38477 -2.57813,-2.48242 -2.46484,-2.58984 -0.89062,-1.14258 -0.78125,-1.26758 -1.44336,-2.65625 -0.76367,-1.25977 -0.86329,-1.1289 -1.01367,-0.93164 -1.21289,-0.67188 -1.44922,-0.4375 -1.46875,-0.20703 -1.48242,-0.002 -1.49805,0.16797 -1.51171,0.3125 -1.52149,0.42383 -3.07227,1.06836 -3.09374,1.16406 -3.10547,1.02344 -1.55079,0.38281 -1.55078,0.25976 -1.54492,0.10352 -1.53906,-0.0781 -1.28516,-0.32422 -1.23242,-0.59179 -2.37109,-1.5625 -1.17578,-0.75977 -1.191413,-0.60937 -1.224609,-0.34766 -1.275391,0.0137 -0.962891,0.25 -0.892578,0.38086 -0.830078,0.49805 -0.777344,0.59961 -1.429687,1.43945 -1.324219,1.66016 -2.605469,3.47265 -1.425781,1.56446 -1.597656,1.28515 -2.914063,2.13672 -1.566406,1.16797 -1.58789,1.0625 -1.56836,0.82031 -1.511719,0.44532 -0.722656,0.043 -0.693359,-0.10157 -0.660156,-0.25976 -0.621094,-0.4375 -0.59961,-0.69141 -0.332031,-0.75781 -0.0957,-0.81641 0.105469,-0.86914 0.277343,-0.91601 0.41211,-0.95508 1.103516,-2.00586 1.255859,-2.08594 1.146484,-2.11523 0.447266,-1.05469 0.322265,-1.04102 0.164063,-1.02343 -0.0293,-0.99805 -0.267578,-1.56836 -0.390625,-1.63672 -0.525391,-1.63477 -0.673828,-1.56054 -0.833984,-1.41406 -1.00586,-1.19336 -1.189453,-0.9043 -1.384765,-0.53906 z"
         transform="scale(0.26458333)"
         sodipodi:nodetypes="cccccccccccccccccccccccccccccccccccccccccccccccccccccccccccccsscsccccccccccccccccccccccccccccccccccccccccccccccccccccccccccccccccccccccccccccccccccccccccccccccccccccccccccccccccccccccccccccccccccccccccccccccccccccccccccccccccccccccccccccccccccccccccccccccccccccccccccccccccccccccccccccccccccccccccssscccccccccccccccccccccccccccccccccccccccccccccccccccccccccccccccccccccccccccccccccccc"
         inkstitch:angle="12"
         inkstitch:row_spacing_mm=".2" />
      <path
         style="display:inline;fill:#ffff00;fill-opacity:1;fill-rule:evenodd;stroke:#000000;stroke-width:2;stroke-linecap:butt;stroke-linejoin:miter;stroke-miterlimit:4;stroke-dasharray:none;stroke-opacity:1"
         d="m 57.540706,65.515506 c 0.38523,-0.64077 -0.0697,-1.61486 0.38272,-2.2101 0.55722,-0.7331 1.71902,-0.68932 2.49655,-1.18268 0.81059,-0.51433 1.27097,-1.71493 2.22408,-1.82972 1.2828,-0.15451 2.31159,1.15724 3.49254,1.68145 0.75624,0.33569 1.9041,0.20922 2.2988,0.93641 0.4025,0.74159 -0.18619,1.69386 -0.47665,2.48607 -0.21781,0.59408 -0.86152,1.02473 -0.93233,1.6535 -0.0827,0.73414 0.48516,1.40028 0.6319,2.12433 0.10448,0.51551 0.39269,1.08971 0.17448,1.5683 -0.31123,0.68258 -1.30145,0.76919 -1.85185,1.27894 -0.43308,0.4011 -0.64895,1.01346 -1.11495,1.37579 -0.85735,0.6666 -1.90602,1.09703 -2.95865,1.36414 -0.8361,0.21216 -1.81593,0.56391 -2.58233,0.16806 -0.51514,-0.26607 -0.39485,-1.2197 -0.91254,-1.48078 -1.21222,-0.61132 -2.75239,0.71378 -4.05845,0.34312 -0.95195,-0.27016 -2.13668,-0.80895 -2.38574,-1.76664 -0.0762,-0.29291 0.19593,-0.58261 0.37398,-0.82734 0.61411,-0.84412 1.42264,-1.56904 2.31801,-2.10569 0.61701,-0.36981 1.69111,-0.0916 2.03272,-0.72467 0.30084,-0.5575 -0.65829,-1.24858 -0.44928,-1.8466 0.18051,-0.51648 1.01508,-0.53699 1.29699,-1.00589 z"
         id="path30782"
         sodipodi:nodetypes="aaaaaaaaaaaaaaaaaaaaaa"
         inkscape:label="I"
         inkstitch:row_spacing_mm=".2" />
      <path
         id="path30780_2"
         style="display:inline;fill:#ffff00;fill-opacity:1;fill-rule:evenodd;stroke:#000000;stroke-width:7.55906;stroke-linecap:butt;stroke-linejoin:miter;stroke-miterlimit:4;stroke-dasharray:none;stroke-opacity:1"
         inkscape:label="I dash"
         d="m 268.27734,279.10156 -2.91992,0.17578 -1.95508,0.33789 -1.92773,0.53711 -1.82031,0.78321 -1.63086,1.08203 -0.69922,0.71875 -0.5625,0.83398 -0.89258,1.8711 -0.86914,1.89648 -0.53711,0.86328 -0.66406,0.75977 -2.27735,2.03906 -2.36523,1.93359 -2.44727,1.83203 -2.52343,1.73829 -5.24414,3.20703 -5.4668,2.88672 -5.63477,2.59961 -5.75,2.35546 -5.81445,2.14844 -5.82422,1.98047 -1.09179,0.27344 -1.16797,0.14648 -2.50391,0.0117 -5.19922,-0.4375 -2.43359,-0.0625 -1.11719,0.0918 -1.0293,0.20703 -0.92187,0.3457 -0.80274,0.50586 -0.66211,0.69336 -0.50976,0.9043 -0.22852,0.74805 -0.0703,0.75 0.0742,0.74609 0.20312,0.74219 0.74415,1.45703 1.10351,1.40625 1.34766,1.33008 1.48633,1.23242 2.93945,2.08789 1.28711,0.65625 1.39648,0.40039 1.4707,0.22461 1.51172,0.13086 3.00782,0.31445 1.42773,0.34766 1.33399,0.58203 1.70117,1.08984 1.57812,1.31446 1.29688,1.53906 0.49414,0.85547 0.36523,0.91211 0.16602,0.83398 h 0.002 c 0.17348,1.70498 -0.5995,3.51586 -1.09961,5.18555 -0.56923,1.90038 -2.03908,3.47777 -2.4707,5.41406 -0.69419,3.11456 -0.66217,6.43256 -0.10352,9.57422 0.40657,2.28608 1.4698,4.41752 2.47266,6.51172 1.11262,2.32339 3.49135,4.1242 3.91016,6.66601 0.72951,4.42806 -2.21353,8.72717 -2.72657,13.18555 -0.27129,2.35884 -3.8e-4,4.77837 0.10742,7.17187 h -0.002 l 0.008,2.85743 -0.14453,1.4082 -0.29101,1.38672 -0.56446,1.78515 -0.75586,1.73829 -0.99023,1.58203 -1.26953,1.32617 -1.08789,0.70508 -1.25781,0.51953 -1.39063,0.36133 -1.49805,0.23632 -3.17382,0.22266 -3.20313,0.0898 -2.97461,0.20899 -1.32031,0.22656 -1.16602,0.34766 -0.98047,0.5 -0.76171,0.68554 -0.50977,0.89844 -0.22656,1.14649 0.0527,0.74023 0.24024,0.61719 0.40625,0.50976 0.55273,0.41407 1.46289,0.60742 1.79883,0.4082 3.95898,0.69141 1.82813,0.51953 0.80469,0.35547 0.70507,0.4375 0.63672,0.58593 0.54688,0.68946 0.96289,1.5293 1.01367,1.43945 0.61133,0.58008 0.72656,0.42968 1.39453,0.45508 1.44727,0.22266 1.48437,0.0293 1.51172,-0.12109 3.04102,-0.54101 2.9707,-0.66602 1.26758,-0.42188 1.24414,-0.64843 2.43555,-1.55274 1.20312,-0.6914 1.20313,-0.49219 1.20898,-0.1875 0.60742,0.0547 0.60938,0.16797 0.79297,0.43359 0.64062,0.61719 0.51172,0.77148 0.4043,0.90039 0.57812,2.07227 0.41211,2.24609 0.42774,2.19531 0.61523,1.92383 0.43359,0.78711 0.54688,0.63672 0.68359,0.45508 0.83985,0.24609 1.00976,0.008 0.9043,-0.26171 0.81641,-0.49415 0.74023,-0.69335 0.68164,-0.85743 0.63477,-0.98437 1.19531,-2.21289 1.19336,-2.30664 1.30859,-2.11719 0.73438,-0.90039 0.80859,-0.74805 0.89648,-0.56054 1,-0.33985 0.86133,-0.0371 0.83203,0.20508 0.81055,0.37891 0.80078,0.49218 1.60938,1.06055 0.83008,0.43945 0.85742,0.29102 3.0332,0.60938 3.0957,0.38867 1.54688,0.0566 1.53125,-0.0625 1.50976,-0.20117 1.47657,-0.36524 2.77539,-0.92187 1.45507,-0.58789 1.375,-0.68946 1.19922,-0.80468 0.92969,-0.92969 0.5625,-1.06641 0.11524,-0.58984 -0.0117,-0.62891 -0.2461,-0.92383 -0.47265,-0.73632 -0.66992,-0.57227 -0.83985,-0.43555 -0.98047,-0.32226 -1.09179,-0.23633 -2.41407,-0.31055 -2.53125,-0.26562 -2.42187,-0.42578 -1.09961,-0.33594 -0.98828,-0.45117 -0.84961,-0.59375 -0.6836,-0.75782 -0.42968,-0.91211 -0.15039,-0.99414 0.043,-1.05859 0.15624,-1.0957 0.31641,-2.21485 -0.008,-1.07226 -0.22656,-1.01758 -0.54493,-1.17773 -0.69921,-1.08985 -1.71485,-1.99609 -1.88672,-1.90625 -1.75781,-1.9961 c -0.23131,-0.30463 -0.45406,-0.61532 -0.6543,-0.93945 -1.14667,-1.8565 -2.82457,-3.75867 -2.75,-5.93945 0.16706,-4.882 6.48867,-7.99509 7.04883,-12.84766 0.38789,-3.35973 -1.6544,-6.56518 -2.72461,-9.77344 -0.77121,-2.31182 -2.21505,-4.4141 -2.6582,-6.81054 -0.40124,-2.16987 -0.32103,-4.44458 0.043,-6.6211 0.47372,-2.8346 2.66835,-5.29729 2.75195,-8.16992 0.0265,-0.88411 -0.15375,-1.74165 -0.42187,-2.58789 h -0.002 l -1.16992,-3.03711 -0.51562,-1.53125 -0.27735,-1.57031 0.0391,-2.0957 0.30079,-2.08789 0.75976,-4.16993 0.33985,-4.14062 0.25,-2.05274 0.50586,-1.98828 0.88281,-2.24219 1.08984,-2.16601 1.33594,-2.00195 1.62109,-1.74805 0.64258,-0.49219 0.70117,-0.4043 1.51758,-0.63085 1.57227,-0.55469 1.50781,-0.66797 1.64648,-0.77539 1.69141,-0.76367 1.50976,-0.94336 0.61524,-0.59766 0.48437,-0.71484 0.28907,-0.88281 0.0391,-0.9336 -0.36719,-1.96875 -0.42383,-1.99023 -0.0293,-0.9668 0.19336,-0.92383 0.39257,-0.66211 0.58399,-0.5664 1.43945,-0.97657 0.70117,-0.48047 0.58399,-0.51953 0.39062,-0.5957 0.11914,-0.70312 -0.15039,-0.70118 -0.34375,-0.62695 -0.5,-0.55664 -0.61914,-0.49609 -1.4375,-0.82618 -1.45703,-0.65429 -1.13281,-0.4043 -1.17578,-0.28125 -2.43164,-0.23437 z"
         transform="scale(0.26458333)"
         sodipodi:nodetypes="ccccccccccccccccccccccccccccccccccccccccccccccccccccccccsssscccccccccccccccccccccccccccccccccccccccccccccccccccccccccccccccccccccccccccccccccccccccccccccccccccccccccccccccccccccccccccccccssscccccccccccccccccccccccccccccccccccccccccccccccccc"
         inkstitch:row_spacing_mm=".2" />
      <path
         id="path30822_1"
         style="display:inline;fill:#ffff00;fill-opacity:1;fill-rule:evenodd;stroke:#000000;stroke-width:7.55906;stroke-linecap:butt;stroke-linejoin:miter;stroke-miterlimit:4;stroke-dasharray:none;stroke-opacity:1"
         d="m 404.27539,309.86719 -2.51172,0.24414 -2.58789,0.5664 -2.64258,0.78711 -2.67578,0.91016 -5.36523,1.7793 -2.64649,0.66992 -2.59765,0.38867 -3.26563,0.17969 -3.2793,0.0332 -6.57031,-0.11719 -3.28125,-0.0254 -3.26758,0.0801 -3.24804,0.24805 -3.22461,0.48242 -3.43164,0.78516 -3.375,0.99609 -3.33008,1.1582 -3.29688,1.27735 -6.54687,2.72265 -6.56055,2.64844 -1.58984,0.52539 -1.68359,0.4375 -3.5586,0.69141 -3.67187,0.58789 -3.60743,0.65429 -3.37304,0.89258 -1.54297,0.58789 -1.41992,0.71289 -1.27344,0.85743 -1.10742,1.02343 -0.91602,1.21094 -0.70703,1.41797 -0.25,0.89258 -0.0684,0.87695 v 0.002 l 0.10352,0.9375 0.27148,0.92579 0.41406,0.91406 0.53321,0.9082 1.33593,1.80664 1.53516,1.8086 1.54492,1.83398 1.3711,1.88281 0.56054,0.96485 0.44727,0.98437 0.31055,1.00781 0.14648,1.03321 -0.0996,1.80859 -0.44727,1.75391 -0.69335,1.71679 -0.8418,1.69532 -1.73633,3.40039 -0.69531,1.74023 -0.45117,1.79102 -0.43164,3.02929 -0.31641,3.06055 -0.18359,3.08008 -0.043,3.08398 0.11523,3.07618 0.28125,3.05664 0.46485,3.02539 0.65624,2.98047 0.33399,1.01953 v 0.002 l 0.63867,1.39648 0.78906,1.3418 1.7793,2.60742 0.86914,1.3086 0.77149,1.34179 0.61718,1.39453 0.39649,1.47266 0.0957,1.05274 -0.0606,1.08007 -0.48437,2.2168 -0.78906,2.25195 -0.87696,2.24024 -0.75,2.17968 -0.40625,2.07032 -0.008,0.97851 0.16016,0.9336 0.35156,0.88281 0.57226,0.82422 0.85352,0.79492 0.95117,0.56641 1.03711,0.36132 1.11328,0.1875 1.17969,0.0371 1.23438,-0.0859 2.59765,-0.43555 5.40625,-1.16602 2.64258,-0.30273 1.27148,0.0117 1.22461,0.15625 3.62891,0.95117 3.52539,1.32617 3.42578,1.60156 3.32031,1.78321 1.35352,0.90625 1.26563,1.07617 2.40624,2.35547 1.21876,1.1289 1.27734,0.99219 1.375,0.78125 1.50781,0.49219 1.05274,0.14844 1.04882,0.0312 2.08789,-0.24219 2.08008,-0.55078 2.07813,-0.74805 4.16992,-1.63672 2.10547,-0.66601 2.1289,-0.41211 2.01172,-0.0859 2.04297,0.14258 4.11524,0.57031 2.03515,0.22656 2,0.0547 1.94532,-0.21875 1.875,-0.58984 0.91992,-0.47461 0.84961,-0.57032 1.51562,-1.38085 1.33985,-1.62305 1.23632,-1.76758 2.45118,-3.59961 1.36328,-1.64453 1.55273,-1.41211 1.16211,-0.71875 1.27539,-0.55469 2.70313,-0.88086 1.33007,-0.45507 1.25,-0.55274 1.1211,-0.71289 0.94531,-0.93945 1.26562,-1.875 0.7129,-1.33399 0.60546,-1.40429 0.47852,-1.45118 0.33203,-1.47656 0.16602,-1.47656 -0.0176,-1.45508 -0.22461,-1.4082 -0.44727,-1.3418 -0.51171,-0.95312 -0.66993,-0.90235 -0.80468,-0.83203 -0.91407,-0.73828 -0.99414,-0.625 -1.05078,-0.48633 -1.08398,-0.32812 -1.08594,-0.14649 -1.2168,0.0801 -0.92187,0.25977 -0.83203,0.40039 -0.74805,0.52734 -0.67578,0.63867 -1.17774,1.55664 -1.00781,1.83008 -1.82617,4.01953 -0.97852,1.95313 -1.12695,1.76172 -1.20312,1.32031 -0.68946,0.54101 -0.75586,0.44727 -2.82031,1.17773 -2.97656,0.81641 -3.08789,0.47852 -3.1543,0.1582 -3.17383,-0.13477 -3.14648,-0.4082 -3.07422,-0.6582 -2.95899,-0.88672 -2.14453,-0.84766 -2.07226,-1.03125 -1.99805,-1.19726 -1.91797,-1.34375 -1.83984,-1.47266 -1.75781,-1.58398 -1.67188,-1.67774 -1.58789,-1.7539 -3.03516,-3.83789 -2.57421,-3.68946 -1.2168,-1.96875 -1.06836,-2.03125 -0.84766,-2.07226 -0.55078,-2.09961 -0.17969,-2.10743 0.0742,-1.05078 0.19336,-1.04882 0.4375,-0.9043 0.73828,-0.72266 0.93946,-0.59961 1.04101,-0.53906 1.04102,-0.53906 0.93945,-0.60156 0.73633,-0.72266 0.43359,-0.90625 0.13282,-0.9043 -0.0254,-0.88672 -0.16602,-0.875 -0.28516,-0.86523 -0.84375,-1.70703 -1.07031,-1.69531 -1.13086,-1.70118 -1.02734,-1.72656 -0.75391,-1.77344 -0.22461,-0.9082 -0.0937,-0.92773 0.0762,-1.91993 0.29297,-1.90234 0.48047,-1.87891 0.63672,-1.85351 1.61719,-3.60547 1.86719,-3.44336 0.24023,-0.39844 v -0.002 l 1.57227,-2.38867 1.79101,-2.24414 1.98047,-2.08008 2.13867,-1.89844 2.55664,-1.97656 2.71485,-1.79102 2.87695,-1.45703 1.5,-0.55664 1.54101,-0.41992 1.28516,-0.19727 1.29883,-0.0527 2.61719,0.20703 5.24609,0.80664 2.52734,0.10742 2.57618,0.0312 1.25585,0.10157 1.20508,0.22265 1.13672,0.38867 1.04688,0.60352 0.83789,0.77734 0.65625,0.92578 0.51758,1.04102 0.42773,1.11914 0.75977,2.32422 0.41992,1.13477 0.50976,1.06835 1.96094,3.38672 2.05859,3.33008 4.25782,6.57422 0.43554,0.75781 1.13086,2.62696 1.11524,2.68164 0.65625,1.16797 0.77929,0.94531 0.94532,0.64844 0.54687,0.1875 0.60547,0.082 1.10742,-0.0742 1.04102,-0.31055 0.97461,-0.51953 0.9082,-0.69922 0.84375,-0.85156 0.77734,-0.97852 1.35547,-2.22851 1.23242,-2.75977 0.88672,-2.66992 0.45313,-2.38867 0.0664,-2.42188 -0.23829,-2.44531 -0.46093,-2.46094 -1.27735,-4.92968 -1.20703,-4.88086 -0.36523,-2.58204 -0.19727,-2.73046 -0.15234,-2.78516 -0.22852,-2.74414 -0.43164,-2.61133 -0.32812,-1.22656 -0.42578,-1.1582 -0.53711,-1.07618 -0.66407,-0.98437 -0.80664,-0.88086 -0.96484,-0.76563 -1.45703,-0.80664 -1.51953,-0.53125 -1.57422,-0.2832 z"
         transform="scale(0.26458333)"
         sodipodi:nodetypes="cccccccccccccccccccccccccccccccccccccccccccccccccccccccccccccccccccccccccccccccccccccccccccccccccccccccccccccccccccccccccccccccccccccccccccccccccccccccccccccccccccccccccccccccccccccccccccccccccccccccccccccccccccccccccccccccccccccccccccccccccccccccccccccccccccccccccccccccccccccccccccc"
         inkscape:label="C 1"
         inkstitch:row_spacing_mm=".2"
         inkstitch:angle="-5" />
      <path
         id="path30824_1"
         style="display:inline;fill:#ffff00;fill-opacity:1;fill-rule:evenodd;stroke:#000000;stroke-width:7.55906;stroke-linecap:butt;stroke-linejoin:miter;stroke-miterlimit:4;stroke-dasharray:none;stroke-opacity:1"
         inkscape:label="A "
         d="m 485.00586,340.45703 -2.61719,0.12109 -1.87305,0.27149 -1.83984,0.46289 -3.62109,1.25195 -3.61719,1.2793 -1.83789,0.49805 -1.86914,0.32422 -1.14453,0.0566 -1.17774,-0.0664 -2.42382,-0.41406 -4.91797,-1.28711 -2.375,-0.49414 -1.14063,-0.125 -1.09961,-0.0156 -1.04883,0.1211 -0.99414,0.27929 -0.92968,0.46289 -0.86133,0.66993 -0.67188,0.79492 -0.45703,0.8789 -0.26758,0.95313 -0.10742,1.01758 0.16016,2.19336 0.47851,2.33593 0.58008,2.40235 0.46485,2.39258 0.11914,1.16992 0.008,1.13867 -0.12695,1.09766 -0.29297,1.04687 -0.57813,1.00391 -0.81445,0.86132 -0.74414,0.68555 -0.83399,0.69922 -0.70312,0.74805 -0.5332,0.85351 -1.8418,3.95899 -0.9082,2.17383 -0.73438,2.18164 -0.4375,2.09961 -0.0664,0.99023 0.0547,0.9375 0.19141,0.87109 0.34375,0.79297 0.51367,0.70508 0.69727,0.60742 0.8164,0.42383 0.82031,0.16211 0.82227,-0.0742 0.83008,-0.27539 0.83398,-0.44726 0.8418,-0.5879 1.70703,-1.4746 1.74805,-1.66211 1.79687,-1.60352 1.85156,-1.29687 0.94922,-0.45508 0.9668,-0.28711 1.64648,-0.125 1.66407,0.18554 1.67382,0.38477 1.67774,0.47461 1.66992,0.45117 1.6582,0.31836 1.63477,0.0723 1.60547,-0.28321 0.96484,-0.39062 0.90039,-0.52149 1.63477,-1.34961 1.46094,-1.60351 1.46093,-1.82617 0.83203,-1.1875 0.73633,-1.25196 1.29297,-2.61718 1.24414,-2.65625 1.41602,-2.55079 1.80078,-3.12109 1.05664,-1.40039 0.63281,-0.57226 0.72657,-0.45313 1.22265,-0.50977 1.30274,-0.36914 1.35351,-0.22461 1.37891,-0.0781 1.375,0.0762 1.34179,0.22852 1.28321,0.39062 1.19531,0.55274 0.85938,0.68945 0.64648,0.91601 0.5,1.06836 0.42578,1.14454 0.42383,1.14843 0.49414,1.07813 0.63477,0.93359 0.8457,0.7168 0.66406,0.30859 0.71289,0.1836 1.53906,0.0644 1.63477,-0.20703 1.66406,-0.32031 1.62891,-0.27344 1.52344,-0.0742 0.70312,0.0879 0.65039,0.19922 0.59375,0.32617 0.52539,0.47656 0.7832,1.21485 0.42774,1.38281 0.125,1.50586 -0.12695,1.58203 -0.32618,1.61133 -0.47265,1.59375 -1.17969,2.94922 -0.47461,0.86523 -0.58203,0.78711 -1.40039,1.40234 v 0.002 l -2.75195,2.17187 -1.33203,1.13086 -1.16993,1.25977 -0.67578,1.00781 -0.57031,1.09375 -0.99805,2.29102 -1.10742,2.17578 -0.70898,0.95312 -0.8711,0.81055 -1.1289,0.7207 -1.21875,0.55664 -1.28711,0.41992 -1.33789,0.3086 -2.75586,0.40625 -2.74024,0.30859 -2.94922,0.17188 -2.96484,-0.084 -2.96875,-0.14844 -2.96484,-0.0137 -3.83789,0.31446 -3.83204,0.48437 -3.83007,0.4082 -1.91797,0.0996 -1.91992,-0.01 -1.67969,-0.20899 -1.68164,-0.42578 -3.35742,-1.10547 -1.66016,-0.48047 -1.64258,-0.29882 -1.61719,-0.0195 -1.58789,0.36328 -1.11328,0.5332 -1.01953,0.70898 -0.92773,0.86133 -0.83594,0.97852 -0.74219,1.07226 -0.65234,1.13282 -1.0293,2.33789 -0.2832,1.16797 -0.0605,1.20898 0.25586,2.48242 0.28516,2.49219 -0.0274,1.21875 -0.23242,1.18555 -0.67187,1.58984 -0.92383,1.46484 -4.04492,4.94336 -0.77149,1.16797 -0.62305,1.24414 -0.47851,1.32813 -0.36914,1.36328 -0.50586,2.79297 -0.37109,2.83594 -0.43555,2.81445 -0.69336,2.42969 -1.03906,2.54101 -2.28125,5.1543 -0.83008,2.47461 -0.2461,1.18164 -0.0996,1.13281 0.0742,1.07617 0.27149,1.01172 0.49609,0.93555 0.7461,0.85547 0.48437,0.35937 0.51953,0.23047 1.12695,0.11914 1.22071,-0.24805 1.2832,-0.51367 2.62695,-1.41601 1.28516,-0.69922 1.22461,-0.5586 1.07031,-0.51367 1.03516,-0.6582 2.02344,-1.46484 1.01757,-0.66016 1.03907,-0.51758 1.07617,-0.30078 1.12891,-0.0117 0.8457,0.26758 0.73047,0.50781 0.65039,0.67578 0.60547,0.77735 1.22656,1.5664 0.69141,0.65039 0.79296,0.46875 1.64258,0.53516 1.69531,0.31445 1.73438,0.13867 1.76367,0.0156 3.5625,-0.15234 3.5332,-0.0664 5.23829,0.25195 2.61523,0.0195 2.59961,-0.20507 1.51367,-0.33789 1.49024,-0.53125 2.9375,-1.3125 1.46484,-0.60938 1.4707,-0.46484 1.48438,-0.23438 1.50586,0.0801 0.71093,0.19922 0.66211,0.31836 1.21485,0.89453 2.26758,2.10352 4.26367,3.74218 4.04883,3.97656 1.35351,1.62305 1.25586,1.72852 1.33398,1.6289 0.75391,0.71289 0.83985,0.61133 2.12304,1.22071 2.22656,1.08398 2.3125,0.93164 2.375,0.76367 2.41797,0.57422 2.44532,0.37109 2.44921,0.14649 2.4336,-0.0937 2.375,-0.37109 2.31836,-0.64649 2.26172,-0.87695 2.20703,-1.06641 2.15429,-1.21289 2.10157,-1.31445 4.05664,-2.76563 2.31836,-1.42187 2.43164,-1.53516 1.02734,-0.85547 0.78125,-0.93359 0.44141,-1.03125 0.0644,-0.55664 -0.0527,-0.58985 -0.28907,-0.94335 -0.45703,-0.81055 -0.61133,-0.68945 -0.74414,-0.58204 -0.86328,-0.48632 -0.96289,-0.4043 -2.1582,-0.61719 -4.76367,-0.83398 -2.33008,-0.42578 -2.11133,-0.57422 -1.60937,-0.41992 -1.7168,-0.2461 -3.51758,-0.33203 -1.67969,-0.26953 -1.54687,-0.45508 -1.35156,-0.73633 -0.58594,-0.5 -0.51367,-0.60547 -0.59766,-0.93164 -0.49414,-0.99023 -0.70117,-2.12891 -0.34375,-2.27734 -0.0234,-2.36719 0.31445,-2.67969 0.63086,-2.63476 0.90235,-2.50586 1.1289,-2.29688 0.57617,-0.71484 0.75782,-0.54492 1.8164,-0.8086 1.81641,-0.81054 0.75586,-0.54492 0.57422,-0.7168 0.60547,-1.23633 0.45312,-1.2793 0.32227,-1.3125 0.20312,-1.34765 0.1211,-2.77149 -0.15039,-2.85156 -0.59766,-5.79687 -0.18555,-2.87891 0.0664,-2.82031 0.19726,-3.76758 0.14063,-3.80469 0.34961,-3.75195 0.33594,-1.83008 0.48828,-1.78516 h -0.002 l 0.6836,-1.77148 0.51758,-0.90039 0.64453,-0.8125 1.52343,-1.4707 1.58594,-1.4375 0.7207,-0.77344 0.62305,-0.8418 1.01758,-1.79492 0.86914,-1.87109 1.46484,-3.88282 1.37891,-3.93164 0.76563,-1.92968 0.87109,-1.87891 1.16406,-1.7832 1.52344,-1.73829 3.3418,-3.40234 1.42968,-1.69726 0.56836,-0.85352 0.44141,-0.86133 0.28711,-0.86914 0.10742,-0.88086 -0.0918,-0.89258 -0.32031,-0.90625 -0.55078,-0.89453 -0.6875,-0.71875 -0.81055,-0.55859 -0.91992,-0.41602 -1.01562,-0.28711 -1.09766,-0.17578 -2.38281,-0.082 -2.53516,0.17383 -2.57812,0.29883 -2.50782,0.29492 -2.32226,0.16406 -2.37891,0.19922 -2.35742,0.41992 -4.68164,1.18946 -2.33789,0.60937 -2.34375,0.51563 -2.35938,0.34179 -2.37695,0.0899 -1.95117,-0.15821 -1.92578,-0.33593 -3.80469,-1.01954 -3.79297,-1.15625 -1.9082,-0.50976 -1.92578,-0.40039 -9.11133,-1.57813 -4.57813,-0.56836 -2.29296,-0.15429 -2.28907,-0.041 z"
         transform="scale(0.26458333)"
         sodipodi:nodetypes="cccccccccccccccccccccccccccccccccccccccccccccccccccccccccccccccccccccccccccccccccccccccccccccccccccccccccccccccccccccccccccccccccccccccccccccccccccccccccccccccccccccccccccccccccccccccccccccccccccccccccccccccccccccccccccccccccccccccccccccccccccccccccccccccccccccccccccccccccccccccccccccccccccccccccccccccccccccccccccccccccccccccccccccccccccccccccccccccccc"
         inkstitch:row_spacing_mm=".2"
         inkstitch:angle="-12" />
      <path
         id="path30788_1"
         style="display:inline;fill:#ffff00;fill-opacity:1;fill-rule:evenodd;stroke:#000000;stroke-width:7.55906;stroke-linecap:butt;stroke-linejoin:miter;stroke-miterlimit:4;stroke-dasharray:none;stroke-opacity:1"
         inkscape:label="C  Color"
         d="m 644.79883,364.17383 -1.875,0.16406 -1.92188,0.38477 -3.92383,1.16992 -3.95117,1.26367 -1.95312,0.50195 -1.91992,0.32813 -3.33203,0.24219 -3.34961,0.13281 -3.32227,0.27148 -1.63477,0.26758 -1.60937,0.39649 -1.73633,0.69531 -1.64844,0.95703 -3.16797,2.26562 -1.58398,1.09375 -1.62305,0.92188 -1.69726,0.64258 -0.88477,0.18359 -0.91601,0.0723 -1.00391,-0.0957 -0.98437,-0.29687 -0.96875,-0.46289 -0.95313,-0.59571 -1.86523,-1.46289 -1.81836,-1.59961 -1.78321,-1.47461 -0.88086,-0.60742 -0.87695,-0.47656 -0.87305,-0.3125 -0.86914,-0.11523 -0.86914,0.11523 -0.86914,0.37695 -0.81836,0.62305 -0.60351,0.74609 -0.41016,0.85547 -0.24219,0.95118 -0.0996,1.03515 0.0195,1.10547 0.29687,2.36914 0.94531,5.02148 0.25391,2.44336 -0.0117,1.16211 -0.13672,1.10157 -0.66015,3.19726 -0.76563,3.19922 -0.89453,3.08984 -1.0918,3.00586 -1.33789,2.87696 -1.63672,2.71093 -1.01953,1.22266 -1.19922,1.0625 -2.6914,1.85938 -2.68946,1.86132 -1.19336,1.06641 -1.01367,1.22852 -1.43945,2.39257 -1.14453,2.58399 -0.42578,1.33984 -0.3125,1.36133 -0.18555,1.375 -0.043,1.37695 0.21289,1.83985 0.50196,1.77734 0.71093,1.73242 0.84766,1.70703 1.79492,3.4043 0.79492,1.73242 0.62305,1.77735 1.0625,3.71093 0.46484,1.87696 0.34961,1.88672 v 0.002 h -0.002 l 0.17773,1.83984 -0.0332,1.84571 -0.23437,1.42382 -0.43555,1.41407 -0.60156,1.40234 -0.73047,1.39453 -1.70899,2.75977 -1.79687,2.71875 -1.5957,2.67578 -0.63282,1.32226 -0.47461,1.31055 -0.27929,1.30078 -0.0488,1.28906 0.21679,1.27735 0.51954,1.26367 0.52539,0.80273 0.63476,0.6875 0.73242,0.57618 0.81641,0.47851 1.85156,0.69141 2.06836,0.39258 2.19532,0.16406 2.23632,0.002 4.2461,-0.21289 1.00976,-0.12695 0.99414,-0.25 1.94532,-0.79297 1.9082,-1.04297 1.88281,-1.13281 1.87695,-1.05469 1.88672,-0.81836 0.95118,-0.26758 0.95898,-0.14648 0.9707,-0.006 0.98242,0.15625 1.5586,0.55859 1.43945,0.84375 1.32031,1.08008 1.19727,1.27344 1.07031,1.41601 0.9375,1.51172 0.80664,1.56446 0.66797,1.5664 0.13672,0.6836 -0.0449,0.73242 -0.34961,1.52539 -0.22852,1.44726 0.10352,0.63672 0.3457,0.54883 0.77344,0.64844 0.8418,0.47461 0.9082,0.32031 0.96094,0.18164 2.06445,0.0293 2.19922,-0.28711 4.57031,-0.91602 2.25195,-0.32031 2.1543,-0.0273 2.26953,0.35351 2.25196,0.52149 2.2539,0.44726 1.13477,0.11914 1.13867,0.008 1.33789,-0.16993 1.3125,-0.34179 2.58398,-0.95117 2.58594,-0.9004 1.31445,-0.27734 1.33594,-0.0801 0.86328,0.0879 0.85352,0.19727 1.68555,0.6543 1.66015,0.87304 1.64258,0.94532 1.62891,0.86718 1.62304,0.63867 0.8125,0.18946 0.8125,0.0742 0.81446,-0.0566 0.8164,-0.20704 0.91993,-0.41601 0.80664,-0.55274 0.70898,-0.67382 0.625,-0.77344 1.05273,-1.79688 0.88672,-2.01172 0.83399,-2.10351 0.89453,-2.0625 1.06641,-1.89258 0.63281,-0.84375 0.71875,-0.75 0.87304,-0.65039 0.97657,-0.50781 2.10937,-0.80274 2.05469,-0.85546 0.90625,-0.57422 0.77344,-0.74414 1.46679,-1.99805 1.27735,-2.21875 1.0039,-2.36328 0.64258,-2.4375 h 0.004 l 0.16406,-1.24024 0.043,-1.23242 -0.0918,-1.21875 -0.24023,-1.19336 -0.44727,-1.31055 -0.63867,-1.32812 -0.80664,-1.28516 -0.94922,-1.1875 -1.07031,-1.0332 -1.16797,-0.82226 -1.24023,-0.55274 -1.29102,-0.22852 -0.70312,0.0293 -0.52735,0.12305 -0.46484,0.2207 -0.76563,0.68555 -0.59765,0.94726 -0.49024,1.12305 -0.89648,2.42774 -0.52539,1.13671 -0.65625,0.97071 -1.59375,1.71679 -1.71289,1.5879 h -0.01 l -1.45703,1.16796 -1.53516,1.05664 -2.63281,1.5625 -2.74805,1.38282 -2.85156,1.11132 -2.94922,0.75 -4.20703,0.82227 -2.20703,0.36719 -2.19336,0.22461 -2.11914,-0.002 -1.98242,-0.3125 -0.92188,-0.29882 -0.86523,-0.41016 -0.79883,-0.5293 -0.72851,-0.6582 -0.35157,-0.45703 -0.24414,-0.5 -0.21289,-1.10938 0.082,-1.22461 0.28516,-1.30664 0.81641,-2.70898 0.34765,-1.32813 0.18945,-1.25781 h 0.002 v -0.74219 l -0.125,-0.69531 -0.26758,-0.63672 -0.43555,-0.57031 -0.65234,-0.53125 -0.71875,-0.36133 -0.7793,-0.21094 -0.83594,-0.082 -1.08398,0.0508 -1.13867,0.17773 -2.37695,0.5918 -2.41993,0.65429 -2.32812,0.41407 -0.0176,-0.002 -1.66992,-0.0312 -0.77735,-0.17383 -0.73242,-0.30078 -0.0176,-0.002 -0.48242,-0.29492 -0.90625,-0.75196 -0.7832,-0.84765 -0.67383,-0.93164 -0.57226,-1.00977 -0.89063,-2.20898 -0.62891,-2.40235 -0.45507,-2.51757 -0.375,-2.55664 -0.38477,-2.52149 -0.48633,-2.41015 -0.85156,-3.2793 -0.79492,-3.31641 -0.29297,-1.66601 -0.17969,-1.66602 -0.0352,-1.66406 0.14648,-1.66016 0.32031,-1.60351 0.4668,-1.57032 0.5957,-1.53711 0.70508,-1.5 1.66992,-2.88476 1.89258,-2.71484 0.96094,-1.04883 1.14062,-0.91407 2.50782,-1.63281 1.21679,-0.82812 1.08985,-0.91016 0.88671,-1.04297 0.60743,-1.23437 0.15234,-0.90625 -0.0898,-0.92774 -0.0137,-0.004 0.0117,0.002 -0.30078,-1.02344 -0.4414,-1.0332 -0.99414,-2.06445 -0.4043,-1.01172 -0.23828,-0.98828 v -0.95313 l 0.31445,-0.91211 0.75781,-0.96289 0.99024,-0.69922 1.16797,-0.48828 1.29492,-0.33789 2.76367,-0.45703 1.36328,-0.23242 1.28125,-0.31446 2.95117,-1.03711 2.9668,-1.08203 1.49414,-0.44336 1.50195,-0.31836 1.51172,-0.14648 1.51953,0.0664 1.35157,0.27148 1.29882,0.44727 1.25586,0.59179 1.22071,0.70118 2.36133,1.59374 2.31054,1.62696 3.43555,2.26367 1.54297,1.3125 0.65429,0.75195 0.55079,0.83399 0.4375,1.01953 0.2539,1.08008 0.15235,2.27343 0.0195,2.32813 0.0879,1.14258 0.20898,1.10937 h 0.006 l 0.19922,0.64844 1.78906,5.27148 0.97852,2.81446 1.13281,2.68945 1.33398,2.39063 0.75586,1.02539 0.83985,0.88672 0.91015,0.73242 1.00196,0.53906 1.10156,0.33203 1.20312,0.10742 0.63282,-0.0684 0.58594,-0.19336 1.01757,-0.68554 0.83985,-1.02539 0.69336,-1.2793 0.57812,-1.42774 0.48633,-1.50195 0.79297,-2.83789 0.27148,-1.62695 -0.0234,-1.66406 -0.30859,-3.37696 -0.004,-0.002 -0.0117,-1.20313 0.13476,-1.18945 0.41211,-1.625 0.56641,-1.57617 1.40429,-3.07617 1.45118,-3.06641 0.62695,-1.56445 0.49609,-1.60352 0.95118,-3.03125 1.2246,-3.23633 1.28125,-3.33007 1.11329,-3.31055 0.42578,-1.61133 0.29882,-1.56445 0.14844,-1.50196 -0.0293,-1.42578 -0.24024,-1.33789 -0.47265,-1.23047 -0.73633,-1.11328 -1.02735,-0.98242 -0.83398,-0.49414 -0.85938,-0.24414 -0.88281,-0.0176 -0.90625,0.17383 -0.92383,0.3418 -0.94336,0.47656 -1.93359,1.25 -4.00195,2.87109 -2.03907,1.15625 -1.02343,0.40625 -1.02149,0.25586 -3.76172,0.61524 -1.9414,0.24023 -1.9336,0.12109 -1.89453,-0.0488 -1.82031,-0.27539 -1.71094,-0.55274 -1.5664,-0.88867 -0.61133,-0.66797 -0.3711,-0.86133 -0.20898,-0.98828 -0.13281,-1.04687 -0.13867,-1.03907 -0.22852,-0.96093 -0.39844,-0.81641 -0.65429,-0.60547 -1.11719,-0.54687 -1.15625,-0.36133 -1.1875,-0.19531 -1.21875,-0.0469 z"
         transform="scale(0.26458333)"
         sodipodi:nodetypes="ccccccccccccccccccccccccccccccccccccccccccccccccccccccccccccccccccccccccccccccccccccccccccccccccccccccccccccccccccccccccccccccccccccccccccccccccccccccccccccccccccccccccccccccccccccccccccccccccccccccccccccccccccccccccccccccccccccccccccccccccccccccccccccccccccccccccccccccccccccccccccccccccccccccccccccccccccccccccccccccccccccccccccccccccccccccccccccccccccccccccccccccccccccccccccccccccccc"
         inkstitch:row_spacing_mm=".2"
         inkstitch:angle="-10" />
      <path
         id="path30790_3"
         style="display:inline;fill:#ffff00;fill-opacity:1;fill-rule:evenodd;stroke:#000000;stroke-width:7.55906;stroke-linecap:butt;stroke-linejoin:miter;stroke-miterlimit:4;stroke-dasharray:none;stroke-opacity:1"
         inkscape:label="H - Top Color"
         d="m 724.09766,266.79883 -1.02344,0.17187 -0.96289,0.46485 -0.89844,0.70117 -0.83398,0.8789 -1.45118,2.06836 -1.13867,2.09961 -1.76953,3.41602 -1.74609,3.08008 -1.73438,2.77539 -1.73242,2.49804 -1.74414,2.25196 -1.76367,2.03515 -1.79492,1.84961 -1.83789,1.69141 -1.89258,1.56445 -1.95703,1.46875 -4.15039,2.75977 -4.54297,2.72851 -5.02149,2.93165 -3.24414,1.6875 -3.35547,1.47656 -3.375,1.44336 -3.30468,1.58008 -1.51172,0.64648 -1.7461,0.56055 -3.60742,1.10742 -1.57226,0.66992 -1.22461,0.83203 -0.4375,0.49414 -0.29688,0.5586 -0.13672,0.6289 0.041,0.70899 0.35742,1.12109 0.59766,0.86133 0.81445,0.63086 1.00391,0.43359 1.16796,0.26172 1.30469,0.12305 2.91992,-0.0508 3.16211,-0.25 3.19532,-0.20313 3.02148,0.0781 1.38086,0.22265 1.25976,0.38281 v -0.002 l 3.34376,1.37891 3.27734,1.63867 1.52148,0.96875 1.39453,1.0957 1.23047,1.24414 1.03125,1.41407 1.06641,2.10156 0.75781,2.23633 0.48828,2.34375 0.25391,2.41406 0.0566,2.45508 -0.10547,2.46093 -0.54687,4.81641 -0.26954,1.09375 -0.43359,1.04688 -1.13281,2.02148 -1.09961,2.02539 -0.39063,1.05274 -0.21093,1.0996 -0.0371,1.51172 0.13476,1.50391 0.27539,1.49609 0.38282,1.48828 0.95703,2.95118 1,2.91406 0.95312,2.47461 1.11914,2.41211 1.11133,2.41406 0.93555,2.48047 0.77539,2.40039 0.72265,2.43359 0.47852,2.45703 0.0918,1.23829 -0.041,1.24023 -0.25781,1.36719 -0.47266,1.3164 -1.31445,2.53907 -1.35547,2.5332 -0.51953,1.30859 -0.32617,1.36133 -0.25391,2.54102 -0.0215,2.56836 0.19726,2.56836 0.40625,2.54492 h 0.002 l 5e-5,4e-5 0.43554,1.88281 0.54297,1.83984 1.65039,2.14649 1.31836,2.09961 1.00977,2.05859 0.73047,2.02539 0.47461,1.99414 0.24609,1.97266 0.0449,1.95508 -0.12891,1.94531 -0.27734,1.9375 -0.40039,1.94141 -1.05859,3.90429 -1.23047,3.98047 -1.1875,4.10156 -0.22071,1.37891 -0.0566,1.39648 0.0801,1.4043 0.19141,1.41016 0.60547,2.81054 0.72265,2.75782 0.63086,1.72851 0.89258,1.67774 2.07617,3.2832 h -0.002 l 0.91797,1.59961 0.69922,1.62109 0.36328,1.65625 0.0176,0.84571 -0.10742,0.86328 -0.5254,1.60547 -0.85351,1.45507 -1.11524,1.32032 -1.3164,1.20703 -1.45313,1.11523 -1.52734,1.04297 -3.02734,1.94531 -1.41993,0.74805 -1.54687,0.53906 -3.25977,0.78516 -1.60351,0.41211 -1.51172,0.53711 -1.36719,0.74609 -1.16797,1.03711 -1.47461,1.86328 -1.41992,2.14453 -1.25781,2.33008 -0.99024,2.41797 -0.61718,2.41016 -0.13282,1.17187 v 1.13477 l 0.14649,1.08594 0.30664,1.02148 0.48047,0.94922 0.66797,0.86523 0.81836,0.70899 0.89648,0.49609 0.9707,0.30273 1.03516,0.12891 1.08789,-0.0273 1.13477,-0.16016 2.36914,-0.64648 2.4414,-0.94727 2.44141,-1.08789 2.36914,-1.07227 2.22656,-0.89453 5.39844,-1.62109 4.82617,-1.07227 4.42383,-0.58984 4.1875,-0.17383 4.12109,0.17578 4.22071,0.45508 9.41601,1.49024 6.60547,1.15625 3.3125,0.375 1.65625,0.041 1.65625,-0.0937 3.68945,-0.22461 1.98047,-0.13281 1.92578,-0.24414 1.76368,-0.42383 1.48828,-0.67773 0.60742,-0.45703 0.5,-0.54493 0.375,-0.64453 0.23828,-0.7539 0.0547,-0.79883 -0.16602,-0.71289 -0.35937,-0.63867 -0.52539,-0.57618 -1.44141,-1.01171 -1.7832,-0.90626 -1.90235,-0.89453 -1.80859,-0.98242 -0.80078,-0.55273 -0.69531,-0.60938 -0.5625,-0.67968 -0.4043,-0.75977 -0.18555,-0.83203 0.0293,-0.85742 0.4375,-1.76368 0.48242,-1.77734 0.0859,-0.87695 -0.10938,-0.85742 -0.45117,-1.20508 -0.64062,-1.11133 -0.78125,-1.04492 -0.875,-0.99805 -1.83399,-1.96289 -0.86719,-1.01172 -0.76757,-1.0664 -1.98633,-3.03321 -0.85547,-1.58203 -0.60352,-1.67773 -0.16796,-1.10938 0.004,-1.13086 h 0.002 l 0.27344,-2.72851 0.0684,-1.35743 -0.1289,-1.33984 -0.25782,-0.95508 -0.36523,-0.92383 -0.90625,-1.79296 -0.91602,-1.78907 -0.37304,-0.92187 -0.26954,-0.95313 -0.45312,-3.01367 -0.14062,-3.05859 0.0898,-3.07031 0.23242,-3.05469 0.2832,-1.76172 0.47266,-1.75 1.17578,-3.47266 0.53906,-1.72851 0.39063,-1.73047 0.16406,-1.73438 -0.15039,-1.74023 -0.30859,-0.87695 -0.52344,-0.79493 -1.37695,-1.46093 -1.3086,-1.46875 -0.43554,-0.80664 -0.1875,-0.89063 0.0742,-1.19141 0.29688,-1.14648 0.47851,-1.10938 0.6211,-1.07421 1.50586,-2.06446 c 0.66633,-0.82678 1.31768,-1.63756 1.95499,-2.4414 l 2.0625,-2.95899 2.18164,-2.98633 1.20117,-1.32226 1.3125,-1.11328 1.44726,-0.83399 1.61133,-0.48047 1.08789,-0.0488 1.07032,0.1875 1.05078,0.38281 1.02343,0.5332 1.95508,1.35938 1.80078,1.46875 0.9375,0.91015 0.81055,1.0293 1.45703,2.21875 0.002,0.002 1.28906,1.79297 1.53711,1.54492 1.66211,1.44727 1.53515,1.5293 0.63867,0.84961 0.50977,0.9375 0.67187,1.87695 0.42579,1.94336 0.22851,1.99609 0.084,2.03125 -0.0684,4.11133 -0.0488,4.07617 -0.0449,1.66406 -0.17578,1.67774 -0.48243,3.36328 -0.18164,1.66797 -0.0566,1.65039 0.12891,1.625 0.38086,1.58984 0.5332,1.09961 0.76172,0.97657 1.89062,1.7539 0.97071,0.85938 0.88281,0.90429 0.71484,0.99219 0.46875,1.11719 0.25196,1.70117 -0.082,1.73633 -0.33399,1.74219 -0.50781,1.72265 h -0.002 l -0.7793,2.14844 -0.50195,1.01758 -0.6543,0.94726 -1.52344,1.79297 -1.41601,1.82031 -0.51758,0.98633 -0.3125,1.06836 -0.0547,1.05664 0.1543,1.04492 0.6914,2.07227 0.80664,2.08203 0.29493,1.05274 0.14453,1.06836 -0.0254,1.22656 -0.16016,1.21875 -0.54297,2.42773 -0.54101,2.42774 -0.16016,1.21875 -0.0273,1.22656 -0.0176,3.99805 -0.0156,2.14453 0.10157,2.0957 0.30468,1.9375 0.59766,1.67187 0.43555,0.70313 0.54296,0.5957 0.66016,0.47266 0.78906,0.33984 0.54102,0.0996 0.50391,-0.0391 0.92187,-0.43164 0.83789,-0.79883 0.78711,-1.03711 1.58203,-2.28906 0.86719,-1 0.96875,-0.73242 1.76367,-0.88477 1.72266,-0.71289 1.68359,-0.55664 1.64649,-0.41797 3.18359,-0.48828 3.04687,-0.14453 2.91797,0.0606 2.79883,0.12695 2.68945,0.0527 2.58789,-0.16211 2.32032,-0.46093 2.28906,-0.72461 4.74219,-1.80078 2.58203,-0.85938 2.81055,-0.68555 3.10156,-0.40429 1.68164,-0.0625 1.77734,0.0508 1.4375,0.28906 1.44531,0.55664 2.8711,1.41797 1.4043,0.61328 1.37109,0.38477 1.32812,0.0351 0.64454,-0.15429 0.6289,-0.28711 0.77539,-0.60157 0.61133,-0.78906 0.45508,-0.93164 0.3125,-1.0332 0.17578,-1.08984 0.0508,-1.10938 -0.24023,-2.09766 -0.38672,-1.07812 -0.60156,-0.96484 -0.76172,-0.88086 -0.875,-0.82422 -1.88282,-1.58203 -0.90625,-0.8125 -0.81445,-0.86524 -1.28516,-1.85547 -0.66992,-0.89648 -0.81054,-0.75 -0.70118,-0.41992 -0.75195,-0.32422 -1.59375,-0.46289 -1.63672,-0.39063 -1.57422,-0.53125 -3.97265,-1.86523 -1.89649,-1.0918 -1.76953,-1.27344 -1.17383,-1.09179 -1.06054,-1.21289 -1.91602,-2.59961 -0.47461,-1.61524 -0.70312,-1.66211 -1.87305,-3.46289 v -0.002 l -1.53906,-2.6211 -1.50586,-2.71484 -1.30274,-2.80273 -0.52343,-1.4336 -0.41016,-1.45703 -0.63086,-3.48242 -0.30273,-3.51367 -0.0469,-3.49805 0.14453,-3.43555 0.57813,-6.51562 0.50586,-5.73242 0.33398,-1.14453 0.60938,-1.05274 1.65429,-1.95898 0.85157,-0.96485 0.73828,-0.99804 0.52539,-1.06055 0.21875,-1.15234 -0.0664,-1.04102 -0.23633,-0.99805 -0.3789,-0.96484 -0.49219,-0.9375 -1.21094,-1.82422 c -0.44356,-0.60045 -0.88873,-1.20052 -1.33203,-1.80078 h -0.002 l -0.98242,-1.43555 -0.81055,-1.48632 -1.54297,-3.0586 -1.58789,-3.08008 -0.68164,-1.56445 -0.54102,-1.58789 -0.34375,-1.62305 -0.10156,-1.66015 0.0781,-0.64844 0.18554,-0.62305 0.58594,-1.19922 0.69141,-1.17968 0.58007,-1.21289 0.81446,-1.8379 1.04297,-1.9121 2.15234,-3.88672 0.80273,-1.90235 0.41407,-1.82031 0.0117,-0.86914 -0.14063,-0.83398 -0.31641,-0.79493 -0.50976,-0.75 -0.76172,-0.75 -0.86523,-0.57617 -0.95313,-0.41601 -1.0332,-0.26954 -1.09766,-0.13085 -1.14844,-0.008 -2.40429,0.3086 -2.46094,0.66406 -2.41602,0.92187 -2.26953,1.08399 -2.02343,1.15039 -1.07618,0.92578 -0.82226,1.19336 -0.65235,1.36523 -0.57226,1.44922 -0.57617,1.44141 -0.66993,1.33789 -0.84961,1.14453 -0.51757,0.47266 -0.59571,0.38867 -0.95117,0.38281 -1,0.18555 -1.04101,0.0332 -1.06641,-0.0781 -2.16797,-0.32032 -2.13672,-0.25586 -1.91797,-0.18359 -1.91211,-0.26758 -1.9121,-0.22851 -1.91797,-0.0645 -3.21875,0.0996 -3.23047,0.23633 -1.58985,0.23047 -1.55664,0.33984 -1.50976,0.47266 -1.45117,0.63086 -0.65821,0.44922 -0.5664,0.58594 -0.99219,1.3789 -1.02344,1.29688 -0.60547,0.48437 -0.71289,0.30664 -1.10351,0.16406 -1.11328,-0.041 -1.11719,-0.21094 -1.11133,-0.34765 -2.17969,-0.9668 -2.07031,-1.09375 -2.61328,-1.30859 -2.64649,-1.48438 -1.15429,-0.86523 -0.94336,-0.97852 -0.65821,-1.11328 -0.30273,-1.26953 0.0469,-0.88282 0.25585,-0.80664 0.4375,-0.74218 0.58789,-0.6875 1.51563,-1.25586 1.78125,-1.16992 1.81641,-1.17188 1.625,-1.25586 0.66992,-0.6875 0.53515,-0.74023 0.37305,-0.80664 0.18359,-0.88086 0.0117,-0.96094 -0.11718,-0.93164 -0.57032,-1.78711 -0.9375,-1.70313 -1.20312,-1.63867 -2.80469,-3.15234 -1.39844,-1.55469 -1.26171,-1.56445 -1.25391,-1.38867 -1.39649,-1.29102 -1.28125,-1.35156 -0.51757,-0.75 -0.39258,-0.82422 -0.45899,-1.86133 -0.0957,-1.94531 0.19336,-1.95703 0.4082,-1.90235 0.3125,-0.83398 0.44336,-0.78516 1.09375,-1.48633 1.04883,-1.49414 0.39063,-0.79687 0.23632,-0.85156 0.11524,-1.09375 V 323.25 l -0.28516,-2.17383 -0.56054,-2.16797 -0.7129,-2.16797 -0.74414,-2.16992 -0.65234,-2.17773 -0.4375,-2.19141 -0.0977,-2.20703 0.19727,-1.52148 0.39453,-1.48438 1.12891,-2.91211 1.15625,-2.9082 0.43164,-1.48242 0.25,-1.51758 0.13672,-2.19141 0.0176,-2.20312 -0.30468,-4.41016 -0.72266,-4.36523 -1.10547,-4.26367 -0.90039,-3.55079 -0.47265,-1.88476 -0.56446,-1.82031 -0.70898,-1.65821 -0.90821,-1.39062 -0.54687,-0.56446 -0.61719,-0.46093 -0.69531,-0.3418 -0.78125,-0.21289 -0.56836,-0.0488 z"
         transform="scale(0.26458333)"
         sodipodi:nodetypes="ccccccccccccccccccccccccccccccccccccccccccccccccccccccccccccccccccccccccccccccccccccccccccccccccccccccccccccccccccccccccccccccccccccccccccccccccccccccccccccccccccccccccccccccccccccccccccccccccccccccccccccccccccccccccccccccccccccccccccccccccccccccccccccccccccccccccccccccccccccccccccccccccccccccccccccccccccccccccccccccccccccccccccccccccccccccccccccccccccccccccccccccccccccccccccccccccccccccccccccccccccccccccccccccccccccccccccccccccccccccccccccccccccccccccccccccccccccccccccccccccccccccccccccccccccccccccccccccccccccccccccccccccccccccccccccccccccccc"
         inkstitch:row_spacing_mm=".2"
         inkstitch:angle="4" />
      <path
         id="path30792_1"
         style="display:inline;fill:#ffff00;fill-opacity:1;fill-rule:evenodd;stroke:#000000;stroke-width:7.55906;stroke-linecap:butt;stroke-linejoin:miter;stroke-miterlimit:4;stroke-dasharray:none;stroke-opacity:1"
         inkscape:label="O Top Color"
         d="m 918.42188,333.60938 -1.1836,0.0547 -1.16016,0.21485 -1.14062,0.35351 -1.12109,0.47656 -2.20313,1.24219 -2.17187,1.50781 -4.34961,3.20899 -2.23242,1.40625 -2.30274,1.07617 -3.91211,1.20313 -4.02734,0.8789 -8.19727,1.31641 -4.07031,0.70703 -3.98633,0.91406 -1.94531,0.57813 -1.9043,0.68164 -1.85937,0.80078 -1.80469,0.93555 -1.41406,0.96289 -1.26758,1.14843 -2.2832,2.62891 -2.23829,2.69727 -1.21484,1.23437 -1.33789,1.08203 -1.75391,1.0293 -1.86914,0.83203 -1.9082,0.76367 -1.875,0.82617 -1.98438,0.83008 -2.13085,0.69727 -4.33789,1.34179 -2.0254,0.81055 -1.80859,1.01953 -0.79492,0.61328 -0.70703,0.69727 -0.60742,0.79297 -0.49414,0.89648 -0.29883,0.81641 -0.15821,0.82617 0.0332,1.68555 0.40625,1.7207 0.65429,1.74414 1.56641,3.53711 0.66992,1.77344 0.4336,1.76758 0.41992,3.24804 h 0.002 c 0.31521,2.93851 0.45666,5.89896 0.46289,8.85157 1.5e-4,0.0533 -0.008,0.10686 -0.0117,0.16015 -1.17713,12.23135 -11.68008,26.59302 -4.52929,36.58594 3.31381,4.63087 12.78668,-0.62892 16.72461,3.48437 0.46895,0.48987 0.84859,1.02281 1.1621,1.58985 l 0.70899,1.67969 0.41406,1.82812 0.19531,1.9375 0.0508,2.00977 -0.0332,4.08984 0.0664,2.00586 0.2207,1.93164 0.25977,2.49219 0.043,2.625 -0.0352,5.32617 0.19336,2.54297 0.50976,2.35351 0.41797,1.08203 0.54688,1.00391 0.69336,0.91797 0.85547,0.81836 1.4707,0.92578 1.66797,0.59375 1.80469,0.28906 1.88281,0.0117 1.90039,-0.23633 1.85742,-0.45898 1.75781,-0.6543 1.59571,-0.82031 0.73828,-0.52734 0.63867,-0.625 1.02539,-1.48243 0.7832,-1.71484 0.65235,-1.8457 0.6289,-1.87696 0.7168,-1.80859 0.91406,-1.63867 0.56446,-0.72656 0.65429,-0.64454 1.18555,-0.89062 1.28125,-0.75195 1.35742,-0.62696 1.41797,-0.52343 2.94141,-0.79883 2.96679,-0.58985 2.32227,-0.30078 2.3418,-0.0996 4.71289,0.17383 4.72851,0.28711 2.35938,0.041 2.34961,-0.10157 4.23242,-0.39257 4.22265,-0.53321 4.17579,-0.76953 4.09179,-1.09179 6.03516,-1.875 3.03515,-1.01368 2.97852,-1.13281 2.86328,-1.30664 2.70117,-1.5293 2.47852,-1.80859 1.14258,-1.02344 1.0664,-1.11133 0.875,-1.32226 0.5586,-1.50781 0.34961,-1.63282 0.25,-1.6875 0.25781,-1.68359 0.37109,-1.61133 0.59375,-1.47656 0.41407,-0.66602 0.50976,-0.60937 1.10156,-0.91406 1.26954,-0.70899 1.41015,-0.53125 1.52149,-0.39062 3.25976,-0.48047 3.35547,-0.30469 3.21484,-0.38867 1.48243,-0.30664 1.35937,-0.42774 1.20703,-0.58008 1.02735,-0.76367 0.8164,-0.98242 0.57617,-1.23242 0.24805,-1.02539 0.0723,-0.99414 -0.0879,-0.96875 -0.23633,-0.94141 -0.36914,-0.92187 -0.48633,-0.90235 -1.27735,-1.76172 -1.58398,-1.7207 -1.7793,-1.70508 -3.69336,-3.45508 c -1.92729,-1.91314 -3.61074,-3.91879 -4.39257,-6.1582 -3.4969,-10.01665 2.25663,-22.37302 -2.78711,-31.70703 -2.56373,-4.74452 -7.65792,-7.30028 -12.42383,-10.19922 v 0.002 h -0.002 l -2.97657,-1.92187 -1.40234,-1.04297 -1.31641,-1.12305 -1.38867,-1.40429 -1.30469,-1.54102 -2.41796,-3.36914 -4.54102,-7.12305 -2.38867,-3.31054 -1.2793,-1.49414 -1.36133,-1.34961 -1.45703,-1.17969 -1.57031,-0.97852 -1.69922,-0.75 -1.8457,-0.49609 -1.29297,-0.13476 z"
         transform="scale(0.26458333)"
         sodipodi:nodetypes="ccccccccccccccccccccccccccccccccccccccccccccccccscsscccccccccccccccccccccccccccccccccccccccccccccccccccccccccccccccccccccccccccccccccccccccccccssccccccccccccccccccc"
         inkstitch:row_spacing_mm=".2"
         inkstitch:angle="12" />
    </g>
  </g>
  <g
     id="g3333"
     style="display:inline"
     inkscape:label="Blank"
     inkscape:groupmode="layer" />
</svg>
