<?xml version="1.0" encoding="UTF-8"?>
<svg id="Layer_1" data-name="Layer 1" xmlns="http://www.w3.org/2000/svg" viewBox="0 0 1571.19 1457.64">
  <defs>
    <style>
      .cls-1 {
        fill: #171717;
      }

      .cls-2 {
        fill: #231f20;
      }
    </style>
  </defs>
  <rect class="cls-2" x="202.98" y="184.14" width="1080" height="1080"/>
  <path class="cls-1" d="M998.05,384.84l-38.75-83.94,40.77-47.27-21.04-18.15-32.88,38.12-8.11-20.82,66.8-77.46-23.79-20.51-56.02,64.96-9.84-24.97,39.71-46.05-22.87-19.73-28.67,33.24-29.41-69.5-24.46,12.94,27.63,64.77-45.28-6.08-5.33,28.38,62.61,8.79,12.75,29.61-85.88-14.5-6.51,27.89,103.75,12.89,9.67,22.7-48.12-5.87,.1,24.55,60.64,9.22,32.73,83.53-82.93-21-21.97-57.77-25.17,3.29,18.27,50.3-25.35-6.95-30.01-100.86-27.23,6.3,25.04,83.81-28.25-3.62-20.12-63.62-27.88,5.2,14.84,46.3-69.75-16.55-6.94,25.93,69.53,17.42-28.93,33.55,22.26,19.2,39.45-45.75,30.82,7.43-55.49,64.35,21.35,18.41,64.96-75.33,21.82,5.53-31.08,35.42,21.65,18.67,40.24-45.52,89.96,22.19-58.12,67.4-61.03-10.62-5.67,27.55,43.73,12.19-10.26,11.89-101.58-22.19-7.42,27.1,89.01,18.26-16.31,18.91-67.16-8.46-3.7,23.4,48.5,10.98-47.34,54.89,21.04,18.15,47.87-55.5,12.54,42.19,27.7-3.76-20.65-63.01,17.84-21.31,29.58,83.48,29.38-8.17-41.38-96.31,14.2-16.47,17.25,44.13,26.18-5.08-21.74-62.35,60.23-69.84,31.39,92.48-35.77,41.48,21.04,18.15,30.77-35.68,7.36,22.3-64.17,74.41,23.48,20.25,55.49-64.35,8.91,27.9-38.92,45.14s20.24,15.07,20.43,17.62,29.46-34.16,29.46-34.16l27.71,65.91,26.58-7.39-25.44-66.08,44.41,5.86,1.84-29.26-58.03-8.56-8.26-26.8,82.56,12.17-1.61-29.58-92.18-10.89-9.46-19.86,42.05,4.89-1-29.05s-54.45-6.54-55.67-7.59-34.21-80.82-34.21-80.82l81.67,15.92,20.04,62.48,26.31-3.37-12.96-47.87s21.56,5.83,20.65,5.04,28.8,96.1,28.8,96.1l26.74-1.4-26.34-86,32.7,5.86,17.51,59.24,27.27-5.73-12.17-44.18,67.85,17.22,5.11-27.5-66.39-17.37,29.24-33.28-23.48-20.25-37.85,44.21-31.85-5.94,54.7-63.43-24.09-20.78-65.49,75.94-17.94-3.24,29.72-34.46-20.74-17.88-37.08,43-91.54-23.97,57.43-66.6,59.41,11.89,7.89-24.57-47.14-11.94,13.68-15.86,100.87,24.24,3.79-25.98-84.11-21.48,16.83-19.52,64.35,12.95,1.96-27.56-43.04-10.53,45.5-52.76-23.18-19.99-47.08,54.59-15.89-45.08-27.02,9.14,23.76,58.78-20.51,23.79-28.8-80.68-28.77,8.69,39.11,96.48-12.8,16.08-16.16-44.78-26.05,6.78,21.97,57.77-57.17,68.76Z"/>
  <g>
    <polyline class="cls-1" points="342.28 1304.77 392.81 1314.37 350.64 1181.98 397.22 1135.24 428.53 1244.67 509.68 1159.98 530.88 1224.49 450.63 1308.25 463.19 1353.73 541.36 1272.15 569.84 1363.35 613.46 1349.61 583.19 1260.28 672.76 1283.98 711.84 1243.2 571.23 1214.18 554.73 1155.97 672.34 1179.08 637.98 1069.71 695.58 1081.9 724.48 1192.6 778.01 1199.69 746.84 1096.96 835.99 1115.49 844.87 1074.43 753.83 1052.9 818.87 985.02 803.55 939.29 706.29 1040.8 638.82 1023.33 724.74 933.65 613.49 908.28 654.96 865 791.03 895.64 775.38 848.39 688.07 830.43 756.1 759.44 725.27 729.91 662.32 795.61 629.05 687.28 592.65 725.27 627.71 831.72 585.35 875.94 552.08 767.61 467.35 856.04 449.37 792.84 548.18 692.21 502.42 677.63 435.85 745.24 409.2 654.01 363.12 667.19 390.36 752.12 285.42 727.72 296.81 775.66 406.75 796.19 421.87 861.44 310.91 835.75 344.78 950.62 281.65 936.72 243.99 801.49 208.19 838.86 232.91 925.25 139.74 904.07 132.07 944.49 220.94 964.55 139.79 1049.24 192.74 1057.57 269.11 977.85 338.33 991.63 254.8 1078.81 362.75 1106.39 318.59 1152.47 212.73 1122.71 176.63 1160.39 288.58 1189.41 223.84 1256.98 252.79 1284.72 317.53 1217.16 342.28 1304.77"/>
    <g>
      <polygon class="cls-2" points="338.1 1054.23 399.57 1071.39 447.52 1021.34 386.05 1004.18 338.1 1054.23"/>
      <polygon class="cls-2" points="531.33 995.22 592.8 1012.38 640.75 962.33 579.28 945.17 531.33 995.22"/>
      <polygon class="cls-2" points="528.97 851.75 548.74 912.43 500.79 962.48 481.02 901.8 528.97 851.75"/>
      <polygon class="cls-2" points="478.16 1050.7 497.93 1111.38 449.98 1161.43 430.21 1100.75 478.16 1050.7"/>
      <polygon class="cls-2" points="525.62 1041.83 588.08 1054.93 607.58 1121.44 545.12 1108.34 525.62 1041.83"/>
      <polygon class="cls-2" points="376.3 898.76 438.76 911.85 458.25 978.37 395.79 965.27 376.3 898.76"/>
    </g>
  </g>
  <g>
    <polyline class="cls-1" points="1254.05 1426.97 1301.93 1408.19 1195.75 1318.58 1210.29 1254.21 1295.06 1330.18 1318.66 1215.28 1370.96 1258.6 1347.62 1372.23 1382.47 1404.04 1405.2 1293.36 1477.86 1355.39 1507.47 1320.53 1434.29 1261.04 1522.73 1233.42 1534.09 1178.08 1399.61 1228.38 1354.66 1187.9 1466.52 1144.84 1379.2 1070.55 1434.45 1050.2 1517.86 1128.52 1566.94 1106.03 1485.86 1035.67 1571.19 1003.89 1556.85 964.4 1468.31 994.64 1487.23 902.56 1449.92 872 1421.64 1009.71 1355.22 1030.85 1380.21 909.19 1272.52 946.95 1284.58 888.23 1416.08 841.72 1377.68 810.06 1294.21 841.34 1313.99 745.03 1272.17 736.44 1253.87 825.57 1168.03 751.59 1157.44 803.13 1243.8 874.57 1231.48 934.56 1145.65 860.58 1121.01 980.54 1072.14 936.61 1102.2 798.82 1055.71 810.85 1035.35 903.52 964.22 840.48 932.23 876.17 1000.5 933.56 898.68 968.78 933.86 1003.29 1037.84 962.14 1085.38 1009.32 977.78 1046.65 1067.61 1125.85 1006.77 1147.7 902.9 1053.28 892.49 1103.97 959.41 1163.94 869.26 1195.61 884.29 1233.92 970.2 1203.58 946.6 1318.48 995.85 1297.33 1018.06 1189.2 1083.99 1164 1059.69 1282.27 1165.75 1248.15 1152.91 1310.66 1047.46 1341.83 1036.96 1392.94 1147.17 1357.91 1128.34 1449.57 1167.63 1457.64 1186.46 1365.98 1254.05 1426.97"/>
    <g>
      <polygon class="cls-2" points="1117.12 1217.12 1178.28 1198.91 1192.23 1131.02 1131.06 1149.22 1117.12 1217.12"/>
      <polygon class="cls-2" points="1249.26 1064.28 1310.43 1046.08 1324.38 978.18 1263.21 996.39 1249.26 1064.28"/>
      <polygon class="cls-2" points="1170.89 944.09 1219.93 984.93 1205.98 1052.83 1156.94 1011.99 1170.89 944.09"/>
      <polygon class="cls-2" points="1233.8 1139.56 1282.84 1180.4 1268.9 1248.29 1219.86 1207.45 1233.8 1139.56"/>
      <polygon class="cls-2" points="1269.25 1106.78 1329.09 1084.61 1381.01 1130.53 1321.17 1152.7 1269.25 1106.78"/>
      <polygon class="cls-2" points="1066.68 1065.17 1126.52 1043 1178.44 1088.93 1118.59 1111.1 1066.68 1065.17"/>
    </g>
  </g>
  <path class="cls-1" d="M347.66,304.08l30.33-87.34,62.15-5.76-2.56-27.67-50.12,4.64,8.61-20.61,101.85-9.44-2.9-31.28-85.41,7.91,10.24-24.81,60.55-5.61-2.79-30.07-43.71,4.05L460.94,7.65l-26.59-7.65-25.04,65.82-28.39-35.79-23.52,16.74,38.99,49.77-11.36,30.17-51.79-70.02-24.04,15.57,65.77,81.26-8.78,23.06-30.58-37.61-16.96,17.75,37.27,48.72-34.38,82.86-45.15-72.66,24.26-56.85-20.41-15.1-21.74,48.9-13.43-22.59,48.37-93.46-23.98-14.36-40.12,77.73-17.83-22.21,29.65-59.77-23.69-15.6-21.44,43.64-38.75-60.31-22.98,13.86,37.99,60.79-44.11,4.09,2.71,29.27,60.15-5.57,17.04,26.73-84.61,7.84,2.6,28.07,99.05-9.18,11.88,19.12-46.95,3.95,2.64,28.47,60.56-4.87,49.39,78.4-88.62,8.21-36.58-50-23.2,15.9,23.04,39.12-15.64,1.45-57.76-86.46-24.15,14.37,51.43,74.91-24.86,2.3-42.49-52.68-18.9,14.29,27.31,41.55L0,336.29l2.56,27.67,72.98-6.76-20.24,39.08,22.56,16.51,28.85-59.7,27.63-2.96-36.61,80.64,26.82,14.5,37.02-98.07,21.65-2.01-18.19,43.75,22.38,14.51,27.61-59.99,91.83-8.51-41.56,88.38-54.54,5.05,2.56,27.67,46.92-4.35-10.17,21.16-97.84,9.07,2.86,30.88,84.61-7.84-12.93,26.27-59.35,5.5s4.13,24.9,2.49,26.87,44.91-4.16,44.91-4.16l-25.77,66.69,24.27,13.12,27.52-65.24,27.92,35.03,21.62-19.8-35.85-46.42,12.64-25.03,51.01,66.05,19.36-22.42-58.83-71.8,6.96-20.87,26.89,32.69,19.43-21.62s-34.67-42.49-34.82-44.09,31.44-81.94,31.44-81.94l47.77,68.13-28.92,58.9,21.28,15.82,23.88-43.47s11.48,19.16,11.37,17.96c-.11-1.2-45.93,89.19-45.93,89.19l20.23,17.54,40.7-80.21,19.48,26.91-28.49,54.81,23.62,14.8,21.89-40.26,36.92,59.48,22.76-16.26-35.76-58.57,44.15-3.69-2.86-30.88-57.93,5.58-18.81-26.38,83.41-7.73-2.94-31.68-99.85,9.25-10.67-14.78,45.31-4.2-2.53-27.27-56.54,5.24-49.29-80.77,87.57-8.11,34.54,49.78,22.73-12.22-25.67-41.3,20.85-1.93,55.83,87.44,20.75-16.08-45.67-73.83,25.66-2.38,37.36,53.97,20.53-18.48-23.69-37.44,69.37-6.43-2.82-30.48-71.78,6.65,19.83-43.49-25.8-12.17-23.67,58.81-31.28,2.9,35.23-78.09-26.75-13.7-38.77,96.61-20.38,2.7,19.43-43.46-23.47-13.19-24.26,56.85-88.87,9.85Z"/>
</svg>