<?xml version="1.0" encoding="UTF-8"?>
<svg id="Layer_1" data-name="Layer 1" xmlns="http://www.w3.org/2000/svg" viewBox="0 0 1571.19 1457.64">
  <defs>
    <style>
      .cls-1 {
        fill: #f4f4f5;
      }

      .cls-2 {
        fill: #fff;
      }
    </style>
  </defs>
  <rect class="cls-2" x="202.98" y="184.14" width="1080" height="1080"/>
  <path class="cls-1" d="M998.05,384.84l-38.75-83.94,40.77-47.27-21.04-18.15-32.88,38.12-8.11-20.82,66.8-77.46-23.79-20.51-56.02,64.96-9.84-24.97,39.71-46.05-22.87-19.73-28.67,33.24-29.41-69.5-24.46,12.94,27.63,64.77-45.28-6.08-5.33,28.38,62.61,8.79,12.75,29.61-85.88-14.5-6.51,27.89,103.75,12.89,9.67,22.7-48.12-5.87,.1,24.55,60.64,9.22,32.73,83.53-82.93-21-21.97-57.77-25.17,3.29,18.27,50.3-25.35-6.95-30.01-100.86-27.23,6.3,25.04,83.81-28.25-3.62-20.12-63.62-27.88,5.2,14.84,46.3-69.75-16.55-6.94,25.93,69.53,17.42-28.93,33.55,22.26,19.2,39.45-45.75,30.82,7.43-55.49,64.35,21.35,18.41,64.96-75.33,21.82,5.53-31.08,35.42,21.65,18.67,40.24-45.52,89.96,22.19-58.12,67.4-61.03-10.62-5.67,27.55,43.73,12.19-10.26,11.89-101.58-22.19-7.42,27.1,89.01,18.26-16.31,18.91-67.16-8.46-3.7,23.4,48.5,10.98-47.34,54.89,21.04,18.15,47.87-55.5,12.54,42.19,27.7-3.76-20.65-63.01,17.84-21.31,29.58,83.48,29.38-8.17-41.38-96.31,14.2-16.47,17.25,44.13,26.18-5.08-21.74-62.35,60.23-69.84,31.39,92.48-35.77,41.48,21.04,18.15,30.77-35.68,7.36,22.3-64.17,74.41,23.48,20.25,55.49-64.35,8.91,27.9-38.92,45.14s20.24,15.07,20.43,17.62,29.46-34.16,29.46-34.16l27.71,65.91,26.58-7.39-25.44-66.08,44.41,5.86,1.84-29.26-58.03-8.56-8.26-26.8,82.56,12.17-1.61-29.58-92.18-10.89-9.46-19.86,42.05,4.89-1-29.05s-54.45-6.54-55.67-7.59-34.21-80.82-34.21-80.82l81.67,15.92,20.04,62.48,26.31-3.37-12.96-47.87s21.56,5.83,20.65,5.04,28.8,96.1,28.8,96.1l26.74-1.4-26.34-86,32.7,5.86,17.51,59.24,27.27-5.73-12.17-44.18,67.85,17.22,5.11-27.5-66.39-17.37,29.24-33.28-23.48-20.25-37.85,44.21-31.85-5.94,54.7-63.43-24.09-20.78-65.49,75.94-17.94-3.24,29.72-34.46-20.74-17.88-37.08,43-91.54-23.97,57.43-66.6,59.41,11.89,7.89-24.57-47.14-11.94,13.68-15.86,100.87,24.24,3.79-25.98-84.11-21.48,16.83-19.52,64.35,12.95,1.96-27.56-43.04-10.53,45.5-52.76-23.18-19.99-47.08,54.59-15.89-45.08-27.02,9.14,23.76,58.78-20.51,23.79-28.8-80.68-28.77,8.69,39.11,96.48-12.8,16.08-16.16-44.78-26.05,6.78,21.97,57.77-57.17,68.76Z"/>
  <polyline class="cls-1" points="1254.05 1426.97 1301.93 1408.19 1195.75 1318.58 1210.29 1254.21 1295.06 1330.18 1318.66 1215.28 1370.96 1258.6 1347.62 1372.23 1382.47 1404.04 1405.2 1293.36 1477.86 1355.39 1507.47 1320.53 1434.29 1261.04 1522.73 1233.42 1534.09 1178.08 1399.61 1228.38 1354.66 1187.9 1466.52 1144.84 1379.2 1070.55 1434.45 1050.2 1517.86 1128.52 1566.94 1106.03 1485.86 1035.67 1571.19 1003.89 1556.85 964.4 1468.31 994.64 1487.23 902.56 1449.92 872 1421.64 1009.71 1355.22 1030.85 1380.21 909.19 1272.52 946.95 1284.58 888.23 1416.08 841.72 1377.68 810.06 1294.21 841.34 1313.99 745.03 1272.17 736.44 1253.87 825.57 1168.03 751.59 1157.44 803.13 1243.8 874.57 1231.48 934.56 1145.65 860.58 1121.01 980.54 1072.14 936.61 1102.2 798.82 1055.71 810.85 1035.35 903.52 964.22 840.48 932.23 876.17 1000.5 933.56 898.68 968.78 933.86 1003.29 1037.84 962.14 1085.38 1009.32 977.78 1046.65 1067.61 1125.85 1006.77 1147.7 902.9 1053.28 892.49 1103.97 959.41 1163.94 869.26 1195.61 884.29 1233.92 970.2 1203.58 946.6 1318.48 995.85 1297.33 1018.06 1189.2 1083.99 1164 1059.69 1282.27 1165.75 1248.15 1152.91 1310.66 1047.46 1341.83 1036.96 1392.94 1147.17 1357.91 1128.34 1449.57 1167.63 1457.64 1186.46 1365.98 1254.05 1426.97"/>
  <g>
    <polygon class="cls-2" points="1117.12 1217.12 1178.28 1198.91 1192.23 1131.02 1131.06 1149.22 1117.12 1217.12"/>
    <polygon class="cls-2" points="1249.26 1064.28 1310.43 1046.08 1324.38 978.18 1263.21 996.39 1249.26 1064.28"/>
    <polygon class="cls-2" points="1170.89 944.09 1219.93 984.93 1205.98 1052.83 1156.94 1011.99 1170.89 944.09"/>
    <polygon class="cls-2" points="1233.8 1139.56 1282.84 1180.4 1268.9 1248.29 1219.86 1207.45 1233.8 1139.56"/>
    <polygon class="cls-2" points="1269.25 1106.78 1329.09 1084.61 1381.01 1130.53 1321.17 1152.7 1269.25 1106.78"/>
    <polygon class="cls-2" points="1066.68 1065.17 1126.52 1043 1178.44 1088.93 1118.59 1111.1 1066.68 1065.17"/>
  </g>
  <path class="cls-1" d="M347.66,304.08l30.33-87.34,62.15-5.76-2.56-27.67-50.12,4.64,8.61-20.61,101.85-9.44-2.9-31.28-85.41,7.91,10.24-24.81,60.55-5.61-2.79-30.07-43.71,4.05L460.94,7.65l-26.59-7.65-25.04,65.82-28.39-35.79-23.52,16.74,38.99,49.77-11.36,30.17-51.79-70.02-24.04,15.57,65.77,81.26-8.78,23.06-30.58-37.61-16.96,17.75,37.27,48.72-34.38,82.86-45.15-72.66,24.26-56.85-20.41-15.1-21.74,48.9-13.43-22.59,48.37-93.46-23.98-14.36-40.12,77.73-17.83-22.21,29.65-59.77-23.69-15.6-21.44,43.64-38.75-60.31-22.98,13.86,37.99,60.79-44.11,4.09,2.71,29.27,60.15-5.57,17.04,26.73-84.61,7.84,2.6,28.07,99.05-9.18,11.88,19.12-46.95,3.95,2.64,28.47,60.56-4.87,49.39,78.4-88.62,8.21-36.58-50-23.2,15.9,23.04,39.12-15.64,1.45-57.76-86.46-24.15,14.37,51.43,74.91-24.86,2.3-42.49-52.68-18.9,14.29,27.31,41.55L0,336.29l2.56,27.67,72.98-6.76-20.24,39.08,22.56,16.51,28.85-59.7,27.63-2.96-36.61,80.64,26.82,14.5,37.02-98.07,21.65-2.01-18.19,43.75,22.38,14.51,27.61-59.99,91.83-8.51-41.56,88.38-54.54,5.05,2.56,27.67,46.92-4.35-10.17,21.16-97.84,9.07,2.86,30.88,84.61-7.84-12.93,26.27-59.35,5.5s4.13,24.9,2.49,26.87,44.91-4.16,44.91-4.16l-25.77,66.69,24.27,13.12,27.52-65.24,27.92,35.03,21.62-19.8-35.85-46.42,12.64-25.03,51.01,66.05,19.36-22.42-58.83-71.8,6.96-20.87,26.89,32.69,19.43-21.62s-34.67-42.49-34.82-44.09,31.44-81.94,31.44-81.94l47.77,68.13-28.92,58.9,21.28,15.82,23.88-43.47s11.48,19.16,11.37,17.96c-.11-1.2-45.93,89.19-45.93,89.19l20.23,17.54,40.7-80.21,19.48,26.91-28.49,54.81,23.62,14.8,21.89-40.26,36.92,59.48,22.76-16.26-35.76-58.57,44.15-3.69-2.86-30.88-57.93,5.58-18.81-26.38,83.41-7.73-2.94-31.68-99.85,9.25-10.67-14.78,45.31-4.2-2.53-27.27-56.54,5.24-49.29-80.77,87.57-8.11,34.54,49.78,22.73-12.22-25.67-41.3,20.85-1.93,55.83,87.44,20.75-16.08-45.67-73.83,25.66-2.38,37.36,53.97,20.53-18.48-23.69-37.44,69.37-6.43-2.82-30.48-71.78,6.65,19.83-43.49-25.8-12.17-23.67,58.81-31.28,2.9,35.23-78.09-26.75-13.7-38.77,96.61-20.38,2.7,19.43-43.46-23.47-13.19-24.26,56.85-88.87,9.85Z"/>
  <polyline class="cls-1" points="496.67 1321.43 544.55 1302.65 438.36 1213.05 452.91 1148.68 537.68 1224.64 561.28 1109.74 613.57 1153.06 590.23 1266.69 625.08 1298.5 647.81 1187.83 720.48 1249.86 750.09 1215 676.9 1155.5 765.34 1127.88 776.71 1072.55 642.23 1122.85 597.28 1082.36 709.13 1039.3 621.82 965.02 677.06 944.67 760.47 1022.99 809.55 1000.49 728.48 930.13 813.8 898.35 799.46 858.87 710.93 889.11 729.84 797.02 692.53 766.47 664.25 904.17 597.84 925.31 622.82 803.66 515.14 841.41 527.2 782.69 658.69 736.18 620.29 704.52 536.83 735.81 556.61 639.5 514.79 630.91 496.48 720.04 410.64 646.06 400.06 697.59 486.42 769.04 474.1 829.02 388.26 755.04 363.62 875 314.75 831.07 344.81 693.29 298.32 705.31 277.97 797.98 206.83 734.94 174.85 770.64 243.11 828.02 141.3 863.24 176.47 897.76 280.45 856.6 327.99 903.79 220.39 941.12 310.22 1020.32 249.39 1042.16 145.51 947.75 135.1 998.44 202.03 1058.41 111.88 1090.08 126.9 1128.38 212.81 1098.04 189.22 1212.94 238.46 1191.8 260.67 1083.66 326.6 1058.46 302.31 1176.74 408.37 1142.61 395.53 1205.13 290.07 1236.3 279.58 1287.41 389.79 1252.37 370.96 1344.04 410.24 1352.11 429.07 1260.44 496.67 1321.43"/>
  <g>
    <polygon class="cls-2" points="359.73 1111.58 420.9 1093.38 434.84 1025.48 373.68 1043.68 359.73 1111.58"/>
    <polygon class="cls-2" points="491.88 958.75 553.05 940.54 566.99 872.65 505.82 890.85 491.88 958.75"/>
    <polygon class="cls-2" points="413.5 838.56 462.54 879.4 448.6 947.29 399.56 906.45 413.5 838.56"/>
    <polygon class="cls-2" points="476.42 1034.02 525.46 1074.86 511.51 1142.75 462.47 1101.92 476.42 1034.02"/>
    <polygon class="cls-2" points="511.86 1001.24 571.71 979.07 623.62 1025 563.78 1047.17 511.86 1001.24"/>
    <polygon class="cls-2" points="309.29 959.64 369.13 937.47 421.05 983.39 361.21 1005.56 309.29 959.64"/>
  </g>
</svg>